<?xml version="1.0" encoding="utf-8"?>
<svg viewBox="1 0 103 34" width="103" height="34" xmlns="http://www.w3.org/2000/svg">
  <path d="M 4.415 16.553 L 4.415 8.393 L 6.018 8.393 L 9.358 13.842 L 9.358 8.393 L 10.889 8.393 L 10.889 16.553 L 9.236 16.553 L 5.946 11.232 L 5.946 16.553 Z M 17.847 13.553 L 19.444 14.059 Q 19.077 15.395 18.222 16.044 Q 17.368 16.692 16.054 16.692 Q 14.429 16.692 13.382 15.582 Q 12.336 14.471 12.336 12.545 Q 12.336 10.508 13.388 9.381 Q 14.44 8.253 16.154 8.253 Q 17.652 8.253 18.587 9.139 Q 19.144 9.662 19.422 10.641 L 17.791 11.031 Q 17.646 10.397 17.187 10.029 Q 16.728 9.662 16.071 9.662 Q 15.164 9.662 14.599 10.313 Q 14.034 10.964 14.034 12.423 Q 14.034 13.97 14.59 14.627 Q 15.147 15.284 16.038 15.284 Q 16.694 15.284 17.168 14.866 Q 17.641 14.449 17.847 13.553 Z M 20.852 16.553 L 20.852 8.393 L 26.903 8.393 L 26.903 9.773 L 22.5 9.773 L 22.5 11.582 L 26.597 11.582 L 26.597 12.957 L 22.5 12.957 L 22.5 15.178 L 27.059 15.178 L 27.059 16.553 Z M 31.622 16.553 L 31.622 8.393 L 34.266 8.393 Q 35.769 8.393 36.226 8.515 Q 36.927 8.699 37.4 9.314 Q 37.873 9.929 37.873 10.903 Q 37.873 11.655 37.601 12.167 Q 37.328 12.679 36.908 12.971 Q 36.487 13.263 36.053 13.358 Q 35.463 13.475 34.344 13.475 L 33.27 13.475 L 33.27 16.553 Z M 33.27 9.773 L 33.27 12.089 L 34.172 12.089 Q 35.146 12.089 35.474 11.961 Q 35.803 11.833 35.989 11.56 Q 36.176 11.287 36.176 10.925 Q 36.176 10.48 35.914 10.191 Q 35.652 9.901 35.252 9.829 Q 34.957 9.773 34.066 9.773 Z M 40.711 16.553 L 39.147 16.553 L 39.147 10.641 L 40.6 10.641 L 40.6 11.482 Q 40.973 10.886 41.271 10.697 Q 41.568 10.508 41.947 10.508 Q 42.481 10.508 42.977 10.803 L 42.492 12.167 Q 42.097 11.911 41.758 11.911 Q 41.429 11.911 41.201 12.092 Q 40.973 12.272 40.842 12.746 Q 40.711 13.219 40.711 14.727 Z M 47.073 14.672 L 48.631 14.933 Q 48.331 15.79 47.682 16.238 Q 47.034 16.687 46.059 16.687 Q 44.518 16.687 43.777 15.679 Q 43.193 14.872 43.193 13.642 Q 43.193 12.172 43.961 11.34 Q 44.729 10.508 45.904 10.508 Q 47.223 10.508 47.985 11.379 Q 48.748 12.25 48.715 14.048 L 44.796 14.048 Q 44.813 14.744 45.174 15.131 Q 45.536 15.518 46.076 15.518 Q 46.444 15.518 46.694 15.317 Q 46.944 15.117 47.073 14.672 Z M 47.162 13.091 Q 47.145 12.412 46.811 12.058 Q 46.477 11.705 45.998 11.705 Q 45.486 11.705 45.152 12.078 Q 44.818 12.451 44.824 13.091 Z M 49.939 10.641 L 51.397 10.641 L 51.397 11.51 Q 51.681 11.065 52.166 10.786 Q 52.65 10.508 53.24 10.508 Q 54.27 10.508 54.988 11.315 Q 55.706 12.122 55.706 13.564 Q 55.706 15.045 54.982 15.866 Q 54.259 16.687 53.229 16.687 Q 52.739 16.687 52.341 16.492 Q 51.943 16.297 51.503 15.824 L 51.503 18.802 L 49.939 18.802 Z M 51.487 13.497 Q 51.487 14.493 51.882 14.969 Q 52.277 15.445 52.845 15.445 Q 53.39 15.445 53.752 15.008 Q 54.114 14.571 54.114 13.575 Q 54.114 12.645 53.741 12.195 Q 53.368 11.744 52.817 11.744 Q 52.244 11.744 51.865 12.186 Q 51.487 12.629 51.487 13.497 Z" transform="matrix(1.94014, 0, 0, 2.789302, -6.066892, -19.988729)" style="fill: rgb(51, 51, 51); white-space: pre;"/>
</svg>