<?xml version="1.0" encoding="utf-8"?>
<!-- Generator: Adobe Illustrator 12.0.0, SVG Export Plug-In . SVG Version: 6.00 Build 51448)  -->
<!DOCTYPE svg PUBLIC "-//W3C//DTD SVG 1.1//EN" "http://www.w3.org/Graphics/SVG/1.1/DTD/svg11.dtd" >
<svg  version="1.1" id="Layer_1" xmlns="http://www.w3.org/2000/svg" xmlns:xlink="http://www.w3.org/1999/xlink" width="667.072" height="443.978"
	 viewBox="0 0 667.072 443.978" overflow="visible" enable-background="new 0 0 667.072 443.978" xml:space="preserve">
<path fill="#FFFFFF" d="M667.072,432.557c0,6.307-5.333,11.421-11.912,11.421H11.913C5.333,443.978,0,438.864,0,432.557V11.421
	C0,5.113,5.333,0,11.913,0H655.16c6.579,0,11.912,5.113,11.912,11.421V432.557z"/>
<path fill="#0060B6" stroke="#003CFF" d="M415.296,134.776c-5.104-2.643-15.795-5.333-21.123-3.123
	c-4.832,2.006-7.045,9.273-5.352,14.096c1.256,3.578,2.439,2.674,6.447,3.002c2.414,0.197,7.609,2.928,9.65,2.426
	c3.395-0.834,9.27-12.155,9.877-15.9"/>
<radialGradient id="XMLID_20_" cx="482.042" cy="169.668" r="57.5695" gradientTransform="matrix(1 0 0 -1 0 434.7979)" gradientUnits="userSpaceOnUse">
	<stop  offset="0" style="stop-color:#5B0909"/>
	<stop  offset="1" style="stop-color:#BF0000"/>
</radialGradient>
<path fill="url(#XMLID_20_)" stroke="#8F0000" d="M456.274,250.98c-1.564-5.649-2.164-11.596,0.994-16.853
	c2.163-3.599,5.676-5.716,7.842-9.225c2.478-4.012,4.447-8.028,7.622-11.602c5.219-5.875,6.984-10.477,9.676-17.889
	c1.914-5.275,4.849-8.828,9.35-12.25c2.245-1.706,9.78-7.973,10.936-3.758c1.465,5.352-4.687,12.068-6.381,16.92
	c-2.236,6.402,3.248,8.719,8.383,11.104c-0.498,0.587-0.574,1.311-1.25,1.896c1.1-0.952,7.146-2.484,8.877-3.113
	c3.297-1.198,5.941-0.885,8.949,1.092c2.586,1.699,7.188,6.854,6.266,10.295c-0.983,3.662-17.602,9.916-8.643,15.604
	c3.808,2.416,7.377-1.642,10.887-2.525c4.207-1.059,6.502,1.49,7.875,6c1.697,5.563,0.41,6.093-3.768,8.224
	c-4.999,2.553-12.629,6.718-11.798,13.282c0.95,7.505,5.285,11.792,1.683,18.98c-2.972,5.931-7.331,11.364-13.191,14.636
	c-6.154,3.435-11.051,6.482-17.993,3.609c-6.413-2.654-6.254-5.865-10.181-10.545c-2.11-2.516-4.712-2.531-7.406-4.015
	c-3.209-1.766-5.115-4.67-7.463-7.314c-4.624-5.212-7.344-10.948-9.688-17.625C457.289,254.31,456.739,252.658,456.274,250.98z"/>
<radialGradient id="XMLID_21_" cx="398.8984" cy="298.3677" r="77.5032" gradientTransform="matrix(1 0 0 -1 0 434.7979)" gradientUnits="userSpaceOnUse">
	<stop  offset="0" style="stop-color:#FFBF00"/>
	<stop  offset="1" style="stop-color:#BF0000"/>
</radialGradient>
<path fill="url(#XMLID_21_)" stroke="#8F0000" d="M432.962,190.98c0.241,0.962,0.269,1.905-0.027,2.807
	c-0.122,0.372-2.525,2.08-2.946,2.602c-1.158,1.437-2.087,3.425-3,5.008c-2.203,3.818-3.832,9.405-7.988,5.024
	c-9.239-9.74-15.859-28.19-16.498-41.511c-0.718-14.979,5.021-26.671,13.513-38.498c3.23-4.5,8.31-7.208,11.348-11.615
	c3.305-4.795,1.779-10.654-0.169-15.643c-0.666-1.705-7.486-15.042-7.758-14.732c2.541-2.903,7.633-6.599,11.379-7.668
	c4.026-1.149,2.699-0.601,4.045,2.841c3.906,9.994,8.123,18.097,17.396,24.03c-1.822-1.363-3.153-3.13-4.333-4.871
	c7.074,0.492,12.904-3.414,17.236-8.564c1.734-2.062,4.146-4.567,5.51-6.888c0.836-1.423,0.957-3.482,2.066-4.623
	c2.256-2.322,12.58-2.78,12.859,1.611c0.118,1.861-5.988,6.884-6.76,9.174c-1.65,4.903-0.571,11.515-0.563,16.653
	c-0.461-6.37,1.387-16.011,6.137-20.437c6.699-6.243,10.428,1.394,15.731,6.055c-3.303-2.903-7.855,7.064-8.693,9.196
	c-1.993,5.066-1.445,10.81-0.069,15.956c2.46,9.194,6.721,17.478,8.512,26.982c0.93,4.93,2.498,13.256,0.233,18.028
	c-2.941,6.197-11.185,4.51-16.323,3.002c-4.035-1.184-9.165-1.935-12.662-4.279c-4.399-2.949-2.491-5.664-3.25-10.235
	c-0.692-4.173-2.66-8.666-5.9-11.487c-6.927-6.034-18.402-5.233-25.462,0.464c-7.932,6.401-12.293,15.956-12.358,26.104
	c-0.033,5.119,0.911,10.431,2.838,15.183C428.176,183.539,432.062,187.387,432.962,190.98z"/>
<g>
	<path fill="#0060B6" d="M437.39,169.244c-0.971-1.11-2-2.113-2.951-2.971c-2.607-2.355-8.19-4.567-9.09-8.161
		c-0.467-1.863,0.673-4.11,1.604-5.657c1.014-1.683,1.748-3.499,2.801-5.179c1.764-2.814,4.157-5.209,6.843-7.148
		c3.128-2.258,4.813-1.079,8.24-0.158c2.802,0.753,5.511,1.823,8.328,2.517c14.466,3.561,28.91,7.748,43.956,6.035
		c6.566-0.748,15.04-5.916,21.479-4.659c13.397,2.617,16.526,30.456,6.167,37.452c-2.877,1.943-5.371,1.207-8.674,1.449
		c-6.617,0.485-15.603,1.063-21.634,4.032c-6.644,3.27-11.027,12.582-14.934,18.464c-2.774,4.179-8.895,14.833-14.939,13.215
		c-0.864,3.759-3.605,7.849-6.464,10.433c-4.849,4.382-8.179,1.947-12.623-1.621c-3.955-3.175-6.11-3.809-10.966-4.377
		c-5.23-0.612-12.974,1.808-14.421-5.002c-1.807-8.496,7.258-17.864,11.775-24.036c2.719-3.713,8.76-9.837,9.537-14.375
		C442.065,175.771,439.923,172.141,437.39,169.244z"/>
	<path fill="none" stroke="#003CFF" d="M469.936,217.302c0.745-2.904,4.323-5.481,6.008-7.874c2.252-3.197,4.174-6.292,5.951-9.792
		c3.34-6.57,8.395-10.563,15.209-13.037c1.937-0.703,3.61-1.752,5.625-2.305c2.044-0.563,4.112-0.878,6.203-1.112
		c5.824-0.651,13.992,0.692,18.208-4.292c1.54-1.821,2.463-4.147,2.781-6.502c0.316-2.346,0.933-4.779,1.062-7.141
		c0.152-2.774,0.097-6.436-0.835-9.074c-1.239-3.512-3.364-6.738-6.251-9.112c-2.016-1.658-4.301-2.742-6.811-3.417
		c-2.811-0.755-5.416,0.85-8.054,1.768c-2.057,0.716-4.119,1.421-6.235,1.944c-2.02,0.5-4.066,0.439-6.124,0.584
		c-1.701,0.119-3.273,0.713-5.014,0.82c-7.678,0.472-15.462-0.626-22.983-2.097c-5.452-1.066-9.991-3.041-15.371-3.725
		c-4.671-0.594-8.674-4.041-13.305-4.54"/>
	<path fill="none" stroke="#003CFF" d="M433.02,195.302c0.822-1.27,1.037-2.463,1.987-3.676c1.504-1.92,2.506-4.129,3.949-6.086
		c1.385-1.878,3.618-4.191,3.313-6.738"/>
</g>
<path fill="#BF0000" stroke="#8F0000" d="M76.144,215.422c0.075-3.646-4.289-5.367-7.155-6.232
	c-4.171-1.261-7.626,0.578-11.85,0.039c-2.932-0.373-5.786-1.373-8.509-2.492c-4.19-1.721-6.146-0.289-8.444,3.714
	c-2.697,4.698,3.424,8.213,7.254,9.778c2.423,0.989,4.38,1.447,7.002,1.445c1.472,0,2.998,0.143,4.444-0.17
	c1.437-0.311,2.771-1.395,4.245-1.297c-2.347,2.856-5.892,2.443-9.165,3.197c-3.349,0.77-6.674,1.689-9.889,2.909
	c-3.149,1.195-5.785,3.144-8.867,4.416c-1.127,0.466-2.834,0.825-3.611,1.888c-0.979,1.34-0.679,4.02-0.477,5.563
	c0.272,2.074,1.194,5.26,3.568,5.803c0.993,0.229,1.006,0.111,1.937-0.32c2.568-1.188,4.604-3.584,7.37-4.289
	c2.609-0.666,5.537-1.291,8.217-1.725c3.807-0.613,9.096,1.236,11.717-1.997c2.59-3.197,5.211-7.173,7.333-10.732
	C72.74,222.444,76.083,218.461,76.144,215.422z"/>
<path fill="#0060B6" stroke="#003CFF" d="M108.941,129.174c-5.104-2.643-15.794-5.333-21.123-3.123
	c-4.832,2.006-7.044,9.273-5.351,14.096c1.256,3.578,2.439,2.674,6.448,3.002c2.413,0.197,7.609,2.928,9.649,2.426
	c3.395-0.834,9.27-12.155,9.877-15.9"/>
<radialGradient id="XMLID_22_" cx="133.9409" cy="107.1245" r="74.8281" gradientTransform="matrix(1 0 0 -1 0 434.7979)" gradientUnits="userSpaceOnUse">
	<stop  offset="0" style="stop-color:#95EDFC"/>
	<stop  offset="1" style="stop-color:#0060B6"/>
</radialGradient>
<path fill="url(#XMLID_22_)" stroke="#003CFF" d="M168.314,385.682c5.375-1.213,10.656-3.886,13.122-9.062
	c8.445-17.729-12.101-34.537-21.669-46.006c-7.165-8.589-12.797-16.861-14.243-28.219c-1.39-10.917-0.03-22.201,2.417-32.873
	c0.721-3.145,10.679-34.913,6.574-35.935c-0.598-4.176,4.025-9.45,5.44-13.416c1.431-4.009,3.833-7.49,5.374-11.5
	c3.022-7.861,3.815-17.018-0.764-24.123c-5.491-8.518-20.364-6.236-28.038-1.851c-13.192,7.538-16.931,20.423-21.71,33.56
	c-5.902,16.22-10.497,33.094-15.39,49.414c-3.086,10.291,4.886,17.689,7.932,26.674c2.793,8.238-3.651,14.17-11.381,11.326
	c-5.292-1.945-7.075-5.993-11.649-8.375c-4.318-2.247-12.231-3.434-17.048-3.551c-4.663-0.115-9.417,3.254-10.739,7.901
	c-1.567,5.509-0.735,13.091,0.787,18.511c1.451,5.166,3.729,9.223,7.054,13.608c8.354,11.021,17.064,23.287,28.458,31.401
	c7.559,5.386,16.553,5.328,24.997,8.091c4.743,1.551,9.311,4.428,13.942,6.392c4.67,1.979,8.159,5.118,12.691,6.975
	c3.776,1.547,6.206,3.213,10.455,3.092C159.299,387.596,164.069,386.641,168.314,385.682z"/>
<linearGradient id="XMLID_23_" gradientUnits="userSpaceOnUse" x1="136.729" y1="215.5127" x2="152.7287" y2="252.512" gradientTransform="matrix(1 0 0 -1 0 434.7979)">
	<stop  offset="0" style="stop-color:#00A0C6"/>
	<stop  offset="1" style="stop-color:#0A0A9E"/>
</linearGradient>
<path fill="url(#XMLID_23_)" stroke="#0060B6" stroke-width="0.5" d="M134.858,186.785c-0.115,0.118-0.229,0.236-0.342,0.357
	c-4.41,4.666-11.572,8.621-12.697,15.535c-0.874,5.375-2.24,16.573,3.734,19.897c3.993,2.221,7.569-1.588,10.863-0.899
	c5.383,1.122,3.984,8.438,10.053,8.995c12.743,1.174,14.375-20.235,17.834-28.207c1.949-4.491,4.427-10.707,2.012-15.705
	c-2.283-4.723-9.432-6.932-14.273-7.086C144.988,179.449,139.484,182.043,134.858,186.785z"/>
<radialGradient id="XMLID_24_" cx="81.4409" cy="177.6245" r="50.589" gradientTransform="matrix(1 0 0 -1 0 434.7979)" gradientUnits="userSpaceOnUse">
	<stop  offset="0" style="stop-color:#95EDFC"/>
	<stop  offset="1" style="stop-color:#0060B6"/>
</radialGradient>
<path fill="url(#XMLID_24_)" stroke="#003CFF" d="M41.443,256.21c-0.84,5.064-0.977,11.787-3.929,16.109
	c-2.43,3.561-4.88,4.689-4.862,9.648c0.032,8.576,5.919,16.205,9.289,23.717c3.07,6.844,1.233,15.979,1.512,23.48
	c0.709,19.145-0.528,38.406-0.512,57.565c0.002,2.746-0.381,5.212,0.84,7.543c2.181,4.166,10.001,7.281,14.237,8.046
	c9.714,1.75,24.32-0.076,24.046-12.248c-0.099-4.386-1.608-8.972-2.012-13.373c-0.655-7.133-0.065-13.783,0.277-20.889
	c0.477-9.906-1.484-12.382-7.79-19.582c-2.792-3.188-4.596-6.216-7.982-8.688c-3.488-2.549-6.707-4.867-9.226-8.519
	c-5.364-7.772-4.059-16.169,3.134-22.272c12.213-10.364,28.521,3.762,39.448,9.062c2.237,1.084,4.684,2.089,7.026,0.737
	c2.912-1.682,1.146-3.297,2.627-5.799c1.215,0.525,1.082-0.219,2.286-0.162c0.956-3.78-4.508-8.432-6.063-11.789
	c-2.322-5.012-4.284-11.145-5.374-16.613c-3.358-16.855,17.928-34.744,4.135-50.515c-4.622-5.282-5.991-8.525-7.097-15
	c-1.109-6.486-3.221-12.91-3.988-19.472c-0.593-5.069-0.899-10.47-0.552-15.647c0.188-2.805,1.001-5.703,1.663-8.49
	c0.565-2.379,2.405-6.168,2.484-8.389c0.313-8.792-24.003-5.572-28.645-0.023c-2.079,2.484-1.283,4.197-0.963,6.988
	c0.644,5.621,0.22,10.629-0.889,16.186c-2.172,10.891-3.903,21.396-7.511,31.864C51.804,224.927,44.086,240.279,41.443,256.21z"/>
<linearGradient id="XMLID_25_" gradientUnits="userSpaceOnUse" x1="80.1646" y1="207.1245" x2="80.1646" y2="221.1249" gradientTransform="matrix(1 0 0 -1 0 434.7979)">
	<stop  offset="0" style="stop-color:#3696C6"/>
	<stop  offset="1" style="stop-color:#0A0A9E"/>
</linearGradient>
<path fill="url(#XMLID_25_)" d="M77.434,227.252c6.81-1.475,11.983,0.959,18.443,2.232c0.196,0.038-3.882-8.941-4.591-9.806
	c-2.341-2.848-5.776-5.747-9.19-6.031c-5.016-0.418-18.754,8.777-17.579,16.431C69.077,230.741,73.113,228.189,77.434,227.252z"/>
<linearGradient id="XMLID_26_" gradientUnits="userSpaceOnUse" x1="59.8389" y1="159.1748" x2="52.8385" y2="145.1741" gradientTransform="matrix(1 0 0 -1 0 434.7979)">
	<stop  offset="0" style="stop-color:#3696C6"/>
	<stop  offset="1" style="stop-color:#080856"/>
</linearGradient>
<path fill="url(#XMLID_26_)" d="M58.029,277.988c-1.785-1.631-3.467-3.568-5.233-4.742c-4.284-2.848-10.251-2.303-11.005,3.414
	c-0.58,4.392,2.264,9.519,4.78,12.908c2.518,3.393,4.456,2.568,7.894,1.105c2.557-1.088,4.691-1.977,7.477-2.637
	c2.277-0.539,7.171-0.25,8.998-1.438c9.046-5.886-7.065-5.362-8.996-6.022C60.548,280.098,59.263,279.117,58.029,277.988z"/>
<radialGradient id="XMLID_27_" cx="181.4404" cy="107.624" r="95.3129" gradientTransform="matrix(1 0 0 -1 0 434.7979)" gradientUnits="userSpaceOnUse">
	<stop  offset="0" style="stop-color:#FFBF00"/>
	<stop  offset="1" style="stop-color:#BF0000"/>
</radialGradient>
<path fill="url(#XMLID_27_)" stroke="#8F0000" d="M155.054,240.687c3.069-13.209,6.634-27.138,15.85-37.514
	c5.219-5.875,6.985-10.477,9.676-17.889c1.915-5.275,4.849-8.828,9.35-12.25c2.245-1.706,9.78-7.973,10.935-3.758
	c1.466,5.352-4.686,12.068-6.38,16.92c-2.236,6.402,3.247,8.719,8.382,11.104c-0.498,0.587-0.574,1.311-1.249,1.896
	c1.099-0.952,7.146-2.484,8.876-3.113c3.297-1.198,5.942-0.885,8.949,1.092c2.586,1.699,7.188,6.854,6.266,10.295
	c-0.983,3.662-17.602,9.916-8.642,15.604c3.807,2.416,7.377-1.642,10.887-2.525c4.207-1.059,6.501,1.49,7.875,6
	c1.696,5.563,0.41,6.093-3.768,8.224c-5,2.553-12.632,6.719-11.798,13.285c0.742,5.846,6.691,12.111,9.311,17.307
	c6.693,13.283,10.872,27.727,13.737,42.283c2.567,13.044,3.183,25.379,1.541,38.613c-1.574,12.688-6.817,27.182-18.523,33.885
	c-8.393,4.805-19.253,6.818-27.273,0.462c-14.729-11.673-19.746-32.079-27.213-48.559c-3.519-7.765-7.635-15.015-10.875-22.938
	c-2.013-4.923-4.372-9.793-5.563-14.994c-1.814-7.922-3.93-15.975-4.688-24.088C149.839,260.65,152.942,249.779,155.054,240.687z"/>
<linearGradient id="XMLID_28_" gradientUnits="userSpaceOnUse" x1="478.5889" y1="248.2983" x2="479.0559" y2="257.8203" gradientTransform="matrix(0.7034 0.7108 0.7108 -0.7034 -315.3661 51.4823)">
	<stop  offset="0" style="stop-color:#BF0000"/>
	<stop  offset="1" style="stop-color:#0A0A9E"/>
</linearGradient>
<path fill="url(#XMLID_28_)" d="M196.746,215.986c2.983,1.941,3.958,4.694,5.817,7.496c0.056,0.087,1.851-4.62,1.909-5.188
	c0.192-1.874,0.011-4.162-1.113-5.504c-1.649-1.97-9.924-3.653-12.279-0.478C192.478,214.205,194.853,214.754,196.746,215.986z"/>
<linearGradient id="XMLID_29_" gradientUnits="userSpaceOnUse" x1="617.6094" y1="340.1284" x2="618.0764" y2="349.6505" gradientTransform="matrix(0.3573 0.934 0.934 -0.3573 -328.682 -220.2536)">
	<stop  offset="0" style="stop-color:#BF0000"/>
	<stop  offset="1" style="stop-color:#0A0A9E"/>
</linearGradient>
<path fill="url(#XMLID_29_)" d="M209.12,233.73c1.947,2.979,1.729,5.891,2.302,9.205c0.017,0.1,3.557-3.482,3.839-3.979
	c0.932-1.639,1.688-3.806,1.2-5.486c-0.716-2.47-7.609-7.345-11.046-5.388C205.931,230.381,207.885,231.84,209.12,233.73z"/>
<radialGradient id="XMLID_30_" cx="82.4414" cy="297.1235" r="91.7821" gradientTransform="matrix(1 0 0 -1 0 434.7979)" gradientUnits="userSpaceOnUse">
	<stop  offset="0" style="stop-color:#FFBF00"/>
	<stop  offset="1" style="stop-color:#BF0000"/>
</radialGradient>
<path fill="url(#XMLID_30_)" stroke="#8F0000" d="M133.915,181.672c-7.493,9.971-16.725,19.688-18.355,32.501
	c-0.595,4.681-0.787,10.197-6.795,8.191c-3.606-1.203-8.034-5.302-10.38-8.263c-4.415-5.572-7.188-12.322-8.976-19.154
	c-3.418-13.066-3.754-27.615-0.604-40.775c4.5-18.801,13.985-38.014,28.139-51.498c4.492-4.279,8.286-6.619,7.606-13.361
	c-0.565-5.599-3.601-10.568-6.942-15.017c2.54-2.903,7.633-6.599,11.379-7.668c4.026-1.149,2.699-0.601,4.044,2.841
	c3.907,9.994,8.123,18.097,17.396,24.03c-1.822-1.363-3.153-3.13-4.333-4.871c7.074,0.492,12.904-3.414,17.236-8.564
	c1.734-2.062,4.146-4.567,5.51-6.888c0.836-1.423,0.957-3.482,2.066-4.623c2.256-2.322,12.581-2.78,12.86,1.611
	c0.118,1.861-5.988,6.884-6.76,9.174c-1.65,4.903-0.571,11.515-0.563,16.653c-0.46-6.37,1.387-16.011,6.137-20.437
	c6.699-6.243,10.428,1.394,15.732,6.055c-2.816-2.476-6.478,4.577-7.019,6.12c-3.144,8.979,2.34,13.573,5.807,20.967
	c6.571,14.018,7.981,32.439,4.809,47.45c0.435-2.056-8.234,0.153-9,0.245c-3.418,0.411-7.661-0.656-10.938-1.617
	c-4.035-1.184-9.165-1.935-12.662-4.279c-3.184-2.135-4.914-5.803-8.072-8.008c-10.048-7.02-18.506,2.441-21.821,11.674
	c-1.851,5.156-0.698,10.219,0.65,15.001c0.826,2.928,1.402,2.44-0.25,5.415C138.416,177.096,135.694,179.307,133.915,181.672z"/>
<g>
	<path fill="#0060B6" d="M139.726,155.381c0.519-1.881,1.322-3.756,2.377-5.746c0.949-1.793,2.074-3.466,3.509-4.908
		c1.283-1.289,2.964-3.055,4.829-3.391c2.166-0.389,5.388,0.916,7.44,1.608c4.516,1.522,8.742,4.335,13.671,4.22
		c4.383-0.102,8.695,1.164,13,1.871c5.982,0.982,12.28,0.896,18.351,0.527c4.176-0.254,8.285-1.167,12.472-1.32
		c2.013-0.074,4.067-0.014,6.028,0.488c1.671,0.428,3.231,2.215,4.319,3.587c4.451,5.618,3.333,14.735-2.783,18.87
		c-2.876,1.943-5.37,1.207-8.673,1.449c-5.156,0.378-11.18,1.371-16.214,2.637c-8.937,2.246-14.271,6.904-18.126,14.775
		c-2.884,5.891-7.34,12.011-11.884,16.623c-0.828-9.308,2.26-22.422-9.214-26.358c-4.718-1.618-10.067-0.64-14.825,0.28
		c-4.448,0.858-9.384,1.819-12.83,4.992c0.322-3.771,4.699-7.826,6.823-10.898c2.28-3.299,2.716-4.779,1.839-8.662
		C139.026,162.437,138.736,158.976,139.726,155.381z"/>
	<path fill="none" stroke="#003CFF" d="M168.108,207.174c0.745-2.904,4.323-5.481,6.008-7.874c2.252-3.197,4.173-6.292,5.951-9.792
		c3.339-6.57,8.394-10.563,15.208-13.037c1.937-0.703,3.611-1.752,5.625-2.305c2.045-0.563,4.116-0.879,6.207-1.113
		c3.609-0.402,7.225-0.652,10.839-0.915c1.604-0.116,2.494,0.167,3.835-0.716c1.202-0.791,2.445-1.571,3.29-2.769
		c1.79-2.538,3.983-5.877,3.567-9.118c-0.316-2.467-1.312-4.549-2.518-6.68c-0.761-1.344-1.265-2.67-2.671-3.519
		c-2.639-1.595-6.235-1.231-9.163-0.954c-4.22,0.399-8.454,0.787-12.684,0.967c-2.363,0.101-4.744,0.193-7.112,0.163
		c-2.581-0.033-5.334,0.278-7.895-0.122c-3.137-0.49-6.242-1.139-9.358-1.717c-1.755-0.324-3.529-0.492-5.302-0.707
		c-1.649-0.2-3.224-0.818-4.864-0.967c-2.9-0.262-4.866-1.505-7.59-2.284c-1.409-0.403-2.87-0.63-4.234-1.166
		c-1.507-0.592-2.568-0.86-4.307-0.876"/>
	<path fill="none" stroke="#003CFF" d="M131.191,185.174c0.823-1.27,1.038-2.463,1.988-3.676c1.504-1.92,2.506-4.129,3.949-6.086
		c1.385-1.878,3.619-4.191,3.313-6.738"/>
</g>
<path fill="#E4BC96" stroke="#FFFFFF" d="M149.793,176.674c4.223,0,8.584,0.891,12.28,2.996c2.299,1.311,3.925,3.523,5.201,5.789
	c2.144,3.804,3.055,8.617,3.049,12.943c-0.003,1.833,0.141,3.674-0.054,5.502c-0.073,0.689-0.448,1.588-0.229,2.263
	c0.219,0.671,1.153,1.263,1.616,1.755c1.08,1.148,2.152,2.816,3.546,3.58c-1.501-0.822,1.312-6.485,1.824-7.465
	c1.178-2.253,3.846-4.508,6.092-5.604c3.357-1.635,7.231-1.707,10.795-1.04c2.286,0.429,4.072,1.411,6.159,2.381
	c1.796,0.835,3.113,2.379,4.712,3.48c2.677,1.845,4.617,5.189,6.703,7.651c2.605,3.074,5.812,5.919,7.625,9.577
	c0.876,1.767,2.165,3.195,3.187,4.907c1.063,1.783,1.926,3.695,2.55,5.676c0.75,2.381,0.58,5.154,0.342,7.617
	c-0.223,2.304-0.529,4.635,0.156,6.896c0.296,0.978,0.708,2.015,1.376,2.801c0.724,0.854,1.573,0.918,2.484,1.385
	c7.306,3.74,9.457,10.896,14.234,16.836c2.325,2.893,4.078,6.098,5.249,9.625c2.825,8.514,4.811,17.332,5.821,26.246
	c0.989,8.719,0.248,17.184,0.18,25.91c-0.05,6.361,0.226,12.688,0.012,19.029c-0.218,6.491-0.751,13.129-1.951,19.52
	c-1.342,7.145-4.67,13.002-8.324,19.193c-2.536,4.297-5.765,9.102-10.3,11.5c-4.358,2.305-9.486,3.803-14.255,4.809
	c-4.238,0.893-8.655,1.609-12.989,1.742c-2.424,0.074-4.831,0.162-7.248,0.256c-8.723,0.338-17.879-1.805-26.443-3.754
	c-11.388-2.59-22.92-4.975-34.026-8.652c-5.842-1.932-11.496-4.135-17.137-6.602c-1.891-0.828-3.851-1.559-5.621-2.604
	c-1.781-1.051-3.985-1.183-5.95-1.799c-3.034-0.952-5.354-2.7-8.053-4.377c-2.903-1.806-5.847-3.545-8.736-5.371
	c-2.852-1.804-5.497-3.771-8.235-5.729c-2.446-1.748-4.951-3.28-7.484-4.896c-3.114-1.985-6.09-4.176-9.061-6.366
	c-1.415-1.044-3.106-1.994-4.381-3.199c-1.07-1.013-1.87-2.475-2.78-3.666c-3.986-5.225-8.349-10.328-10.784-16.516
	c-2.008-5.1-3.429-10.492-3.101-16.011c0.15-2.519,0.333-5.032,0.194-7.562c-0.159-2.912-1.141-6.816-3.489-8.736
	c-11.108-4.168-11.955-18.922-12.005-20.12c-0.478-6.423,2.164-17.466,4.012-20.976c0.271-0.516,0.811-1.026,0.998-1.565
	c4.013-10.632,8.53-15.024,9.797-18.287c1.841-6.219,10.054-14.68,11.313-16.467c0.803-1.139,1.678-2.039,2.537-3.127
	c1.799-2.279,3.699-4.811,5.668-6.906c2.326-2.475,4.63-5.152,7.697-6.719c2.757-1.408,6.142-2.203,9.284-1.85
	c2.803,0.316,5.67,1.641,7.744,3.5c2.781,2.492,4.791,5.691,7.342,8.397c1.104,1.171,2.345,2.142,3.373,3.345
	c1,1.171,2.455,1.636,3.595,2.616c0.867,0.747,1.33,1.339,2.509,1.338c3.23-0.001,4.228-3.63,4.816-6.181
	c0.343-1.486,0.558-3.008,1.129-4.406c0.749-1.833,1.269-3.777,1.93-5.645c0.683-1.926,1.718-3.896,2.926-5.549
	c1.064-1.454,1.786-3.123,2.79-4.648c1.584-2.406,3.589-4.475,5.686-6.436c0.965-0.902,1.541-1.989,2.412-2.989
	c0.998-1.146,2.132-2.163,3.207-3.233c1.768-1.76,3.508-3.412,5.741-4.518c1.457-0.722,3.063-1.096,4.715-1.289
	C145.767,176.643,147.836,176.675,149.793,176.674z M96.911,219.308c-0.869-1.197-1.34-2.71-2.47-3.662
	c-0.967-0.813-5.174-4.762-6.229-5.935c-0.854-0.95-1.22-1.706-2.633-1.886c-1.595-0.203-3.191,0.34-4.723,0.703
	c-2.619,0.62-5.154,1.564-7.523,2.843c-3.271,1.765-5.476,5.404-8.014,8.054c-1.502,1.565-3.352,2.739-4.607,4.541
	c-1,1.432-1.964,2.862-2.901,4.353c-2.36,3.752-4.864,7.459-7.869,10.729c-1.872,7.631-10.934,25.189-8.087,19.107
	c1.161-2.479-1.245,5.686-1.512,8.363c-4.151,13.527,1.904,24.273,5.618,27.516c4.356,3.799,6.809,0.651,10.98-1.365
	c8.134-3.936,19.944-0.529,27.451,3.254c3.881,1.957,7.523,4.412,11.301,6.5c1.523,0.842,7.519,2.707,7.834,4.75
	c0.535,3.459-5.741,0.477-6.836,0.014c-4.423-1.865-8.38-4.832-12.261-7.588c-3.637-2.583-7.296-4.258-11.744-5
	c-3.845-0.643-8.648-0.344-12.169,1.421c-4.443,2.228-4.954,9.063-5.624,13.511c-0.38,2.52,1.31,3.947,3.265,5.297
	c2.424,1.672,4.557,3.51,6.193,5.979c0.866,1.307,1.967,2.451,2.815,3.77c0.733,1.137,1.141,2.383,1.675,3.609
	c1.194,2.741,2.419,5.41,4.619,7.521c1.471,1.41,3.24,2.537,4.975,3.592c2.058,1.25,3.92,2.707,5.874,4.103
	c3.681,2.628,7.502,5.142,11.265,7.655c2.381,1.592,4.376,3.182,7.367,3.348c2.032,0.111,4.09-0.271,5.996-0.967
	c1.618-0.592,2.928-1.574,4.739-1.257c2.98,0.522,4.785,3.705,5.612,6.343c0.534,1.703,1.351,3.857,2.803,5.006
	c1.197,0.945,2.716,1.127,4.131,1.529c1.817,0.518,3.246,1.322,4.562,2.732c1.13,1.211,2.011,2.888,3.276,3.924
	c1.546,1.269,4.168,0.769,6.008,1.209c1.797,0.431,2.727,1.24,3.997,2.506c1.046,1.043,1.813,2.48,3.346,2.88
	c1.625,0.423,3.432-0.12,5.065-0.292c1.943-0.205,4.21-0.156,6.068,0.531c1.788,0.662,2.653,1.766,3.991,2.979
	c1.492,1.354,3.191,1.203,5.039,0.65c2.073-0.62,2.775-2.037,3.501-3.991c0.566-1.524,0.975-3.261,0.999-4.892
	c0.021-1.434-0.24-2.957-0.412-4.379c-0.302-2.496-1.641-4.16-2.902-6.319c-1.359-2.326-2.82-4.591-4.326-6.824
	c-2.821-4.187-5.386-8.67-7.738-13.131c-1.145-2.168-2.112-4.373-3.139-6.601c-0.537-1.166-1.374-2.485-1.366-3.811
	c0.007-1.337-0.063-2.207-0.528-3.553c-1.417-4.1-3.411-8.073-4.96-12.133c-4.981-13.051-8.463-28.289-6.136-42.278
	c1.364-8.178,5.531-16.152,7.469-24.265c0.878-3.675,3.004-10.236,1.003-13.87c-2.841-5.159-10.347-3.959-10.347-11.832
	c0-0.951,0.375-3.112,1.53-2.28c0.947,0.683,0.818,2.562,1.213,3.565c0.542,1.379,1.781,2.771,2.871,3.713
	c6.868,5.938,9.434-1.48,11.535-7.035c2.681-7.086,6.847-13.354,8.976-20.71c0.64-2.213,1.385-4.581,1.225-6.903
	c-0.166-2.416-0.377-5.528-1.369-7.749c-0.499-1.119-1.181-1.885-2.23-2.482c-1.002-0.57-1.726-1.334-2.738-1.871
	c-1.924-1.02-3.825-1.775-6.012-1.973c-3.188-0.289-6.099-0.616-9.153,0.373c-2.899,0.939-5.8,2.064-8.18,3.928
	c-2.006,1.572-3.147,3.994-4.812,5.912c-1.81,2.086-3.78,4.205-5.836,6.035c-1.908,1.697-2.457,4.574-3.082,6.959
	c-1.345,5.126-1.164,10.719,1.525,15.393c1.753,3.048,4.418,3.424,7.621,2.828c0.861-0.158,3.683-1.76,4.183-0.502
	c0.448,1.127-2.306,2.774-3.055,3.133c-1.565,0.748-3.364,1.34-5.083,1.541c-2.1,0.246-4.809-0.84-6.207-2.463
	c-1.43-1.656-2.021-4.006-3.543-5.674c-1.033-1.133-1.892-1.018-2.606,0.293c-2.006,3.676-1.208,7.945-2.147,11.846
	c-1.414,5.869-11.375,23.374-12.37,32.098c-1.193,3.923-2.005,12.399,0.767,16.401c0.334,0.986,1.045,1.92,1.45,2.896
	c1.129,2.719,2.754,5.077,3.652,7.946c0.778,2.485,2.498,4.565,3.201,7.08c0.384,1.37,0.837,4.68-1.638,3.34
	c-0.98-0.532-1.042-1.604-1.348-2.578c-0.423-1.345-4.006-8.7-5.447-10.963c-1.052-1.649-11.269-17.849-2.421-34.935
	c0.797-2.369,1.429-4.803,2.426-7.1c0.948-2.186,1.929-4.234,2.631-6.529c0.901-2.942,2.513-7.737,0.47-10.53
	c-0.837-1.145-2.167-2.016-3.322-2.928C101.122,224.181,98.074,220.913,96.911,219.308z M159.72,245.425
	c-2.397,2.154-4.674,6.841-5.108,8.473c-3.667,13.776,0.281,29.397,6.621,41.76c1.7,3.314,3.608,6.521,5.68,9.617
	c1.915,2.865,3.891,5.92,6.438,8.17c0.555,0.49,0.921,1.127,1.365,1.709c1.049,1.373,2.004,2.848,2.947,4.295
	c1.979,3.039,3.87,5.98,5.398,9.277c2.639,5.693,4.918,11.566,7.417,17.322c1.124,2.592,2.326,5.203,3.188,7.896
	c0.881,2.756,1.857,5.893,3.653,8.207c3.204,4.129,8.01,8.28,13.036,9.941c2.805,0.927,5.626,0.033,7.854-1.814
	c1.011-0.838,1.472-1.75,1.766-2.984c0.12-0.506,0.085-1.271,0.428-1.66c0.94-1.064,1.728,0.023,2.555,0.389
	c1.297,0.574,2.333-0.287,3.11-1.344c1.144-1.557,0.91-3.326,0.994-5.148c0.104-2.24,1.219-3.309,2.884-4.601
	c2.284-1.772,3.78-6.343,2.668-9.081c-1.091-2.688-4.837-3.889-4.19-7.318c0.4-2.125,4.229-6.479,2.132-8.582
	c-0.81-0.811-2.501-1.391-3.459-2.05c-1.503-1.032-2.272-2.239-2.38-4.091c-0.133-2.298,0.699-4.511,2.217-6.238
	c1.183-1.346,2.663-2.207,3.384-3.936c0.988-2.373,0.273-5.043-1.218-6.965c-1.016-1.309-1.477-3.27-1.934-4.895
	c-0.606-2.156-0.176-4.656,0.002-6.846c0.231-2.83-0.354-5.484-0.688-8.268c-0.318-2.65,0.186-5.047-0.811-7.617
	c-0.804-2.074-2.798-3.295-3.957-5.121c-1.956-3.081-1.966-7-2.174-10.532c-0.168-2.854,0.577-8.937-3.348-9.767
	c-2.899-0.611-6.318,2.133-7.753,4.428c-1.157,1.852-1.972,4.164-2.626,6.244c-0.45,1.434-0.681,2.896-0.836,4.385
	c-0.189,1.807,0.109,3.367-0.004,5.118c-0.081,1.256,0.62,5.901-1.147,5.911c-1.969,0.012-2.149-3.194-2.401-4.569
	c-0.41-2.235-0.456-4.532-0.259-6.794c0.207-2.377,0.672-4.734,1.394-7.01c0.564-1.775,0.971-3.543,2.271-4.893
	c2.841-2.951,6.03-5.521,9.615-7.517c3.152-1.753,4.183-4.282,5.216-7.505c0.411-1.281,0.714-2.385,0.874-3.723
	c0.282-2.349,0.433-4.469-0.188-6.78c-0.527-1.967-1.993-3.375-3.198-4.938c-1.336-1.733-1.512-3.666-2.558-5.511
	c-2.37-4.176-7.61-10.717-11.678-13.344c-1.711-1.104-3.713-1.277-4.971-2.832c-1.06-1.311-2.551-2.068-4.197-2.357
	c-3.17-0.557-6.95,0.436-9.332,2.635c-1.289,1.189-2.1,2.584-2.878,4.134c-0.615,1.226-1.529,2.429-1.978,3.726
	c-0.979,2.829-0.592,7.065,0.78,9.75c1.716,3.356,3.052,6.739,3.109,10.619c0.068,4.621,0.338,8.553,2.028,12.898
	c0.846,2.176,1.835,4.104,2.227,6.42c0.421,2.486,0.524,5.014,0.712,7.524c0.227,3.054,0.521,6.235,0.064,9.281
	c-0.214,1.424-0.612,3.305-1.425,4.504c-1.383,2.041-1.826-0.149-1.731-1.496c0.438-6.194-0.198-11.992-1.03-18.116
	c-0.198-1.453-0.543-2.761-0.97-4.162c-1.38-4.529-3.258-10.479-8.819-6.254c-1.563,1.187-2.952,5.173-4.01,0.887
	c-0.478-1.938,1.384-4.035,2.398-5.524c2.359-3.46,5.171-5.962,4.999-10.448c-0.105-2.727-6.801-19.239-10.078-17.395
	c-1.271,0.715-1.635,3.48-2.391,4.618c-0.942,1.417-1.74,2.915-2.606,4.39c-1.933,3.293-3.551,6.564-4.945,10.179
	c-0.417,1.081-2.443,11.689-2.28,11.616c3.66-1.632,12.376-0.736,10.837,5.489c-0.649,0.106-1.192,0.13-1.837-0.012
	C163.382,243.616,161.517,243.808,159.72,245.425z"/>
<g enable-background="new    ">
	<path d="M100.128,44.902v-13.48h1.92l4.3,6.82c0.98,1.58,1.78,2.98,2.4,4.38l0.06-0.02c-0.16-1.8-0.2-3.44-0.2-5.521v-5.66h1.64
		v13.48h-1.76l-4.28-6.84c-0.94-1.5-1.84-3.04-2.5-4.5l-0.06,0.02c0.1,1.7,0.12,3.32,0.12,5.561v5.76H100.128z"/>
	<path d="M117.147,45.122c-2.6,0-4.64-1.92-4.64-4.979c0-3.24,2.14-5.141,4.8-5.141c2.78,0,4.66,2.021,4.66,4.96
		c0,3.601-2.5,5.16-4.8,5.16H117.147z M117.208,43.802c1.68,0,2.94-1.58,2.94-3.78c0-1.64-0.82-3.7-2.9-3.7
		c-2.06,0-2.96,1.92-2.96,3.76c0,2.12,1.2,3.721,2.9,3.721H117.208z"/>
	<path d="M124.208,38.242c0-1.14-0.02-2.12-0.08-3.02h1.54l0.08,1.899h0.06c0.44-1.3,1.52-2.12,2.7-2.12
		c0.18,0,0.32,0.021,0.48,0.061v1.64c-0.2-0.02-0.38-0.04-0.62-0.04c-1.24,0-2.12,0.94-2.36,2.24c-0.04,0.26-0.06,0.54-0.06,0.84
		v5.16h-1.76L124.208,38.242z"/>
	<path d="M130.808,37.842c0-1.021-0.04-1.82-0.08-2.62h1.54l0.08,1.56h0.06c0.54-0.92,1.44-1.78,3.06-1.78
		c1.3,0,2.3,0.801,2.72,1.94h0.04c0.3-0.56,0.7-0.96,1.1-1.26c0.58-0.44,1.2-0.681,2.12-0.681c1.3,0,3.2,0.841,3.2,4.2v5.7h-1.72
		v-5.48c0-1.88-0.7-2.979-2.1-2.979c-1.02,0-1.78,0.74-2.1,1.58c-0.08,0.26-0.14,0.58-0.14,0.88v6h-1.72v-5.8
		c0-1.561-0.68-2.66-2.02-2.66c-1.08,0-1.9,0.88-2.18,1.76c-0.1,0.26-0.14,0.561-0.14,0.86v5.84h-1.72V37.842z"/>
	<path d="M154.308,42.582c0,0.84,0.04,1.66,0.14,2.32h-1.58l-0.16-1.22h-0.06c-0.52,0.76-1.58,1.439-2.96,1.439
		c-1.96,0-2.96-1.38-2.96-2.779c0-2.341,2.08-3.62,5.82-3.601v-0.2c0-0.8-0.22-2.26-2.2-2.239c-0.92,0-1.86,0.26-2.54,0.72
		l-0.4-1.18c0.8-0.5,1.98-0.841,3.2-0.841c2.98,0,3.7,2.021,3.7,3.96V42.582z M152.588,39.961c-1.92-0.04-4.1,0.301-4.1,2.181
		c0,1.16,0.76,1.68,1.64,1.68c1.28,0,2.1-0.8,2.38-1.62c0.06-0.18,0.08-0.38,0.08-0.56V39.961z"/>
	<path d="M157.128,30.702h1.76v14.2h-1.76V30.702z"/>
	<path d="M166.047,30.702h1.76v6.04h0.04c0.28-0.5,0.72-0.96,1.26-1.24c0.52-0.319,1.14-0.5,1.8-0.5c1.3,0,3.38,0.801,3.38,4.141
		v5.76h-1.76v-5.56c0-1.58-0.58-2.881-2.24-2.881c-1.14,0-2.02,0.801-2.36,1.761c-0.1,0.239-0.12,0.5-0.12,0.84v5.84h-1.76V30.702z"
		/>
	<path d="M178.147,40.362c0.04,2.38,1.54,3.36,3.3,3.36c1.26,0,2.04-0.221,2.68-0.48l0.32,1.24c-0.62,0.28-1.7,0.62-3.24,0.62
		c-2.96,0-4.76-1.98-4.76-4.88c0-2.94,1.74-5.24,4.56-5.24c3.16,0,3.98,2.78,3.98,4.56c0,0.36-0.02,0.641-0.06,0.841L178.147,40.362
		z M183.288,39.102c0.02-1.101-0.46-2.86-2.42-2.86c-1.8,0-2.56,1.641-2.7,2.86H183.288z"/>
	<path d="M193.987,42.582c0,0.84,0.04,1.66,0.14,2.32h-1.58l-0.16-1.22h-0.06c-0.52,0.76-1.58,1.439-2.96,1.439
		c-1.96,0-2.96-1.38-2.96-2.779c0-2.341,2.08-3.62,5.82-3.601v-0.2c0-0.8-0.22-2.26-2.2-2.239c-0.92,0-1.86,0.26-2.54,0.72
		l-0.4-1.18c0.8-0.5,1.98-0.841,3.2-0.841c2.98,0,3.7,2.021,3.7,3.96V42.582z M192.268,39.961c-1.92-0.04-4.1,0.301-4.1,2.181
		c0,1.16,0.76,1.68,1.64,1.68c1.28,0,2.1-0.8,2.38-1.62c0.06-0.18,0.08-0.38,0.08-0.56V39.961z"/>
	<path d="M196.828,38.242c0-1.14-0.02-2.12-0.08-3.02h1.54l0.08,1.899h0.06c0.44-1.3,1.52-2.12,2.7-2.12
		c0.18,0,0.32,0.021,0.48,0.061v1.64c-0.2-0.02-0.38-0.04-0.62-0.04c-1.24,0-2.12,0.94-2.36,2.24c-0.04,0.26-0.06,0.54-0.06,0.84
		v5.16h-1.76L196.828,38.242z"/>
	<path d="M205.948,32.902v2.32h2.52v1.34h-2.52v5.22c0,1.2,0.34,1.88,1.32,1.88c0.48,0,0.76-0.04,1.02-0.12l0.08,1.341
		c-0.34,0.119-0.88,0.239-1.56,0.239c-0.82,0-1.48-0.279-1.9-0.739c-0.48-0.54-0.68-1.4-0.68-2.54v-5.28h-1.5v-1.34h1.5v-1.78
		L205.948,32.902z"/>
</g>
<path fill="#BF0000" stroke="#8F0000" d="M377.972,225.549c0.075-3.645-4.288-5.366-7.155-6.231
	c-4.17-1.261-7.625,0.578-11.85,0.039c-2.932-0.373-5.786-1.373-8.509-2.492c-4.19-1.721-6.146-0.289-8.444,3.713
	c-2.697,4.698,3.424,8.214,7.254,9.778c2.424,0.989,4.381,1.447,7.002,1.445c1.473,0,2.998,0.143,4.444-0.17
	c1.437-0.311,2.771-1.395,4.245-1.297c-2.348,2.856-5.893,2.443-9.165,3.197c-3.349,0.77-6.675,1.689-9.89,2.909
	c-3.148,1.195-5.785,3.144-8.866,4.416c-1.128,0.466-2.834,0.825-3.611,1.888c-0.979,1.34-0.679,4.02-0.478,5.563
	c0.272,2.074,1.195,5.26,3.568,5.803c0.993,0.229,1.006,0.111,1.938-0.32c2.568-1.188,4.604-3.584,7.369-4.289
	c2.609-0.666,5.537-1.291,8.218-1.725c3.807-0.613,9.096,1.236,11.717-1.997c2.59-3.197,5.211-7.173,7.333-10.732
	C374.568,232.572,377.91,228.589,377.972,225.549z"/>
<radialGradient id="XMLID_31_" cx="452" cy="334.8989" r="120.8079" gradientUnits="userSpaceOnUse">
	<stop  offset="0" style="stop-color:#DCB3FF"/>
	<stop  offset="0.8427" style="stop-color:#8210D2"/>
	<stop  offset="0.8988" style="stop-color:#6B0EB0"/>
	<stop  offset="0.9643" style="stop-color:#540D8F"/>
	<stop  offset="1" style="stop-color:#4B0C82"/>
</radialGradient>
<path fill="url(#XMLID_31_)" stroke="#003CFF" d="M470.143,395.81c5.375-1.213,10.655-3.886,13.121-9.062
	c9.177-19.264-12.865-33.438-22.762-46.23c-9.37-12.112-5.828-31.121-3.928-45.066c1.032-7.577,2.885-15.119,4.95-22.459
	c1.056-3.753,2.257-8.238,1.411-12.179c-1.577-7.353-6.118-14.771-4.967-22.517c0.539-3.629,2.954-6.061,4.305-9.377
	c1.718-4.216,3.078-8.657,4.266-13.047c0.922-3.405,0.968-7.14,2.074-10.475c1.793-5.406,6.704-9.968,10.5-13.974
	c7.938-8.38,18.789-11.175,24.385-22.013c4.495-8.706,3.515-13.824-6.488-15.662c-10.034-1.844-20.958-1.217-31.01-2.352
	c-6.665-0.752-9.221,1.697-10.398,9.016c-1.803,11.197-8.189,28.415-18.49,34.043c-12.068,6.593-16.001,19.657-20.467,31.93
	c-5.902,16.22-10.496,33.094-15.39,49.414c-3.086,10.291,4.886,17.689,7.933,26.674c2.793,8.238-3.652,14.17-11.382,11.326
	c-5.292-1.945-7.075-5.993-11.649-8.375c-4.317-2.247-12.23-3.434-17.047-3.551c-4.664-0.115-9.418,3.254-10.74,7.901
	c-1.566,5.509-0.734,13.091,0.787,18.511c1.451,5.166,3.729,9.223,7.055,13.608c8.354,11.021,17.064,23.287,28.458,31.401
	c7.56,5.386,16.553,5.328,24.997,8.091c4.742,1.551,9.311,4.428,13.941,6.392c4.67,1.979,8.16,5.118,12.691,6.975
	c3.775,1.547,6.206,3.213,10.455,3.092C461.127,397.724,465.896,396.769,470.143,395.81z"/>
<radialGradient id="XMLID_32_" cx="398.5" cy="167.8989" r="75.3077" gradientTransform="matrix(1 0 0 -1 0 434.7979)" gradientUnits="userSpaceOnUse">
	<stop  offset="0" style="stop-color:#BF0000"/>
	<stop  offset="0.0021" style="stop-color:#BE0002"/>
	<stop  offset="0.0607" style="stop-color:#AF0439"/>
	<stop  offset="0.1197" style="stop-color:#A10868"/>
	<stop  offset="0.1781" style="stop-color:#960B8E"/>
	<stop  offset="0.2356" style="stop-color:#8D0DAC"/>
	<stop  offset="0.2921" style="stop-color:#870FC1"/>
	<stop  offset="0.3471" style="stop-color:#8310CE"/>
	<stop  offset="0.3989" style="stop-color:#8210D2"/>
	<stop  offset="1" style="stop-color:#0060B6"/>
</radialGradient>
<path fill="url(#XMLID_32_)" stroke="#4B0C82" d="M343.271,266.338c-0.841,5.064-0.978,11.787-3.93,16.109
	c-2.43,3.561-4.88,4.689-4.861,9.648c0.031,8.576,5.918,16.205,9.289,23.717c3.069,6.844,1.232,15.979,1.512,23.48
	c0.709,19.145-0.528,38.406-0.512,57.565c0.002,2.746-0.382,5.212,0.84,7.543c2.181,4.166,10,7.281,14.236,8.046
	c9.715,1.75,24.32-0.076,24.047-12.248c-0.1-4.386-1.609-8.972-2.013-13.373c-0.655-7.133-0.065-13.783,0.276-20.889
	c0.478-9.906-1.483-12.382-7.789-19.582c-2.793-3.188-4.596-6.216-7.982-8.688c-3.488-2.549-6.707-4.867-9.227-8.519
	c-5.363-7.772-4.059-16.169,3.136-22.273c9.187-7.795,21.057-1.433,29.842,3.633c4.065,2.344,8.257,5.778,13.067,5.981
	c1.885,0.079,5.421-0.229,6.5-1.99c1.252-2.042-0.935-3.923,0.779-5.691c1.667-1.721,5.381-0.369,7.032-3.316
	c1.541-2.75-0.595-3.702-2.015-6.471c-1.991-3.884-3.416-9.405-3.525-13.771c-0.278-11.074,1.491-21.384,4.414-31.988
	c1.475-5.35,4.788-11.245,4.623-16.873c-0.123-4.168-5.314-14.595-9.889-14.127c-5.469,0.56-11.008,4.406-13.295-2.036
	c-2.398-6.753-3.699-15.755-4.535-22.899c-0.594-5.069-0.898-10.47-0.553-15.647c0.188-2.805,1.002-5.703,1.664-8.49
	c0.564-2.379,2.404-6.168,2.483-8.389c0.313-8.792-24.003-5.572-28.646-0.023c-2.078,2.484-1.282,4.197-0.963,6.988
	c0.645,5.621,0.221,10.629-0.889,16.186c-2.172,10.891-3.902,21.396-7.511,31.864C353.632,235.055,345.914,250.407,343.271,266.338z
	"/>
<linearGradient id="XMLID_33_" gradientUnits="userSpaceOnUse" x1="381.9922" y1="196.9966" x2="381.9922" y2="210.9966" gradientTransform="matrix(1 0 0 -1 0 434.7979)">
	<stop  offset="0" style="stop-color:#8210D2"/>
	<stop  offset="1" style="stop-color:#0A0A9E"/>
</linearGradient>
<path fill="url(#XMLID_33_)" d="M379.262,237.38c6.811-1.475,11.982,0.959,18.443,2.232c0.195,0.038-3.883-8.941-4.592-9.806
	c-2.34-2.848-5.775-5.747-9.189-6.031c-5.016-0.418-18.754,8.777-17.579,16.431C370.904,240.869,374.941,238.317,379.262,237.38z"/>
<linearGradient id="XMLID_34_" gradientUnits="userSpaceOnUse" x1="361.667" y1="149.0469" x2="354.6667" y2="135.0462" gradientTransform="matrix(1 0 0 -1 0 434.7979)">
	<stop  offset="0" style="stop-color:#8210D2"/>
	<stop  offset="1" style="stop-color:#080856"/>
</linearGradient>
<path fill="url(#XMLID_34_)" d="M359.857,288.116c-1.785-1.631-3.468-3.568-5.233-4.742c-4.284-2.848-10.251-2.303-11.005,3.414
	c-0.58,4.392,2.264,9.519,4.779,12.908c2.519,3.393,4.457,2.568,7.895,1.105c2.557-1.088,4.691-1.977,7.477-2.637
	c2.277-0.539,7.172-0.25,8.998-1.438c9.047-5.886-7.064-5.362-8.996-6.022C362.376,290.226,361.091,289.245,359.857,288.116z"/>
<linearGradient id="XMLID_35_" gradientUnits="userSpaceOnUse" x1="698.0928" y1="455.7134" x2="698.5598" y2="465.2354" gradientTransform="matrix(0.7034 0.7108 0.7108 -0.7034 -315.3661 51.4823)">
	<stop  offset="0" style="stop-color:#BF0000"/>
	<stop  offset="1" style="stop-color:#0A0A9E"/>
</linearGradient>
<path fill="url(#XMLID_35_)" d="M498.574,226.114c2.982,1.941,3.957,4.694,5.816,7.496c0.057,0.087,1.852-4.62,1.909-5.188
	c0.192-1.875,0.011-4.162-1.112-5.504c-1.649-1.971-9.925-3.653-12.279-0.479C494.306,224.333,496.681,224.881,498.574,226.114z"/>
<linearGradient id="XMLID_36_" gradientUnits="userSpaceOnUse" x1="734.9102" y1="618.4106" x2="735.3773" y2="627.9338" gradientTransform="matrix(0.3573 0.934 0.934 -0.3573 -328.682 -220.2536)">
	<stop  offset="0" style="stop-color:#BF0000"/>
	<stop  offset="1" style="stop-color:#0A0A9E"/>
</linearGradient>
<path fill="url(#XMLID_36_)" d="M510.947,243.858c1.947,2.979,1.729,5.891,2.303,9.205c0.018,0.1,3.557-3.482,3.839-3.979
	c0.933-1.639,1.688-3.806,1.2-5.486c-0.717-2.47-7.609-7.345-11.047-5.388C507.759,240.509,509.713,241.968,510.947,243.858z"/>
<linearGradient id="XMLID_37_" gradientUnits="userSpaceOnUse" x1="453.0977" y1="115.2368" x2="483.5916" y2="163.3852">
	<stop  offset="0" style="stop-color:#610000"/>
	<stop  offset="0.1141" style="stop-color:#620005"/>
	<stop  offset="0.2526" style="stop-color:#640214"/>
	<stop  offset="0.4038" style="stop-color:#68032D"/>
	<stop  offset="0.5641" style="stop-color:#6D064F"/>
	<stop  offset="0.7314" style="stop-color:#74097B"/>
	<stop  offset="0.9022" style="stop-color:#7D0DB0"/>
	<stop  offset="1" style="stop-color:#8210D2"/>
</linearGradient>
<path fill="url(#XMLID_37_)" stroke="#000000" d="M451,128.899c-3.092-0.002-5.714-0.104-8.5,0.877
	c-2.203,0.776-3.898,2.563-6.425,2.057c-1.113-19.01,20.229-23.264,34.915-19.918c3.051,0.695,5.395,1.527,7.881,3.605
	c2.215,1.85,4.085,3.912,5.8,6.245c1.885,2.564,3.323,5.399,4.986,8.102c1.389,2.256,1.561,4.401,2.305,6.932
	c1.407,4.784,0.076,9.275-1.32,13.864c-1.326,4.357,4.964,0.471,5.867,3.57c0.792,2.724-5.356,5.286-7.187,5.84
	c-3.933,1.189-11.874,1.738-15-1.675c-0.647-0.707-1.998-1.759-1.565-2.797c0.319-0.766,2.013-1.156,2.675-1.501
	c1.7-0.886,0.613-1.143,0.693-2.64c0.047-0.887,1.427-1.875,1.301-2.661c-0.468-2.608-3.316-4.308-4.787-6.4
	c-1.766-2.513-2.41-5.91-4.49-8.135c-3.602-3.854-13.551-6.751-18.648-4.365"/>
<path fill="#E4BC96" stroke="#FFFFFF" d="M447.129,182.628c2.363-2.737,4.004-5.92,4.136-10.065
	c0.229-7.227-2.036-20.773,7.237-23.287c5.168-1.4,12.133,3.828,16.51,1.244c3.795-2.24,0.188-4.413-2.925-4.208
	c-1.899-3.167-2.849-7.793-5.45-10.548c-2.877-3.048-9.211-4.43-13.125-4.876c-6.329-0.722-10.772,2.901-16.51,3.647
	c-7.406,0.963-2.604-8.383-1.002-12.538c3.117-8.085,8.551-8.541,16.363-10.596c6.106-1.606,13.482-4.486,19.52-1.212
	c6.311,3.422,13.418,8.807,17.278,14.948c0.926,1.472,9.18,19.319,8.287,19.659c-2.108,0.802-4.931,1.804-6.245,3.492
	c4.729,4.87,14.682,0.826,18.431,6.966c3.277,5.367-2.475,13.205-5.136,17.621c-8.188,13.583-27.886,14.021-32.549,31.337
	c-0.9,3.347,0.518,6.358,0.147,9.821c-0.073,0.689-0.448,1.588-0.229,2.263c0.22,0.671,1.154,1.263,1.617,1.755
	c1.08,1.148,2.151,2.816,3.545,3.58c-1.5-0.821,1.313-6.484,1.824-7.464c1.178-2.253,3.846-4.508,6.092-5.604
	c3.357-1.635,7.231-1.707,10.795-1.04c2.287,0.429,4.072,1.411,6.16,2.381c1.795,0.835,3.112,2.379,4.711,3.48
	c2.678,1.845,4.617,5.189,6.703,7.652c2.605,3.073,5.813,5.918,7.625,9.576c0.877,1.767,2.166,3.195,3.188,4.907
	c1.063,1.783,1.926,3.695,2.55,5.676c0.75,2.381,0.58,5.154,0.343,7.617c-0.224,2.304-0.529,4.635,0.155,6.896
	c1.303,4.304,6.719,5.681,9.646,8.883c3.009,3.292,4.451,7.597,5.238,11.91c1.575,8.623,0.625,18.398-2.212,26.679
	c-3.514,10.254-11.309,19.363-11.218,30.558c0.039,4.675,2.511,9.394,3.053,13.95c0.663,5.578-0.823,11.496,0.601,16.849
	c3.201,12.025,21.11,33.993,3.673,43.217c-4.358,2.305-9.486,3.803-14.255,4.809c-4.238,0.893-8.655,1.609-12.989,1.742
	c-2.425,0.074-4.831,0.162-7.248,0.256c-8.724,0.338-17.879-1.805-26.442-3.754c-11.389-2.59-22.921-4.975-34.027-8.652
	c-5.842-1.932-11.495-4.135-17.137-6.602c-1.891-0.828-3.851-1.559-5.621-2.604c-1.78-1.051-3.984-1.183-5.949-1.799
	c-3.034-0.952-5.354-2.7-8.053-4.377c-2.903-1.806-5.848-3.545-8.736-5.371c-2.852-1.804-5.497-3.771-8.235-5.729
	c-2.446-1.748-4.95-3.28-7.483-4.896c-3.114-1.985-6.09-4.176-9.062-6.366c-1.415-1.044-3.106-1.994-4.381-3.199
	c-1.07-1.013-1.87-2.475-2.78-3.666c-3.986-5.225-8.349-10.328-10.783-16.516c-2.009-5.1-3.43-10.492-3.102-16.011
	c0.15-2.519,0.333-5.032,0.193-7.562c-0.158-2.912-1.141-6.816-3.488-8.736c-11.107-4.168-11.955-18.922-12.006-20.12
	c-0.477-6.423,2.164-17.466,4.013-20.976c0.271-0.516,0.812-1.026,0.998-1.565c4.013-10.632,8.53-15.024,9.797-18.287
	c1.841-6.219,10.054-14.68,11.313-16.467c0.803-1.139,1.678-2.039,2.537-3.128c1.799-2.278,3.699-4.811,5.668-6.905
	c2.326-2.476,4.629-5.152,7.697-6.719c2.756-1.408,6.141-2.203,9.283-1.85c2.803,0.316,5.668,1.64,7.744,3.5
	c4.608,4.128,7.185,2.985,12.638,2.596c4.831-0.345,9.936,1.354,13.915-2.375c5.281-4.947,9.007-11.225,12.973-17.206
	C437.154,192.872,442.25,188.276,447.129,182.628z M398.753,226.949c-4.589-0.178-5.754-3.822-8.715-7.112
	c-0.853-0.948-1.219-1.704-2.632-1.883c-1.594-0.203-3.19,0.34-4.723,0.704c-2.619,0.619-5.154,1.563-7.523,2.842
	c-3.271,1.766-5.475,5.404-8.014,8.055c-1.502,1.565-3.352,2.739-4.606,4.541c-1,1.432-1.964,2.862-2.901,4.353
	c-2.359,3.752-4.863,7.459-7.869,10.729c-1.871,7.631-10.934,25.189-8.086,19.107c1.16-2.479-1.246,5.686-1.513,8.363
	c-4.151,13.527,1.903,24.273,5.618,27.516c4.355,3.799,6.809,0.651,10.98-1.365c8.133-3.936,19.943-0.529,27.45,3.254
	c3.882,1.957,7.522,4.412,11.302,6.5c1.522,0.842,7.519,2.707,7.834,4.75c0.534,3.459-5.742,0.477-6.836,0.014
	c-4.424-1.865-8.381-4.832-12.262-7.588c-3.637-2.583-7.296-4.258-11.744-5c-3.845-0.643-8.648-0.344-12.169,1.421
	c-4.442,2.228-4.954,9.063-5.624,13.511c-0.38,2.52,1.311,3.947,3.266,5.297c2.424,1.672,4.557,3.51,6.192,5.979
	c0.866,1.307,1.968,2.451,2.815,3.77c0.732,1.137,1.141,2.383,1.675,3.609c1.194,2.741,2.419,5.41,4.619,7.521
	c1.471,1.41,3.239,2.537,4.975,3.592c2.058,1.25,3.921,2.707,5.874,4.103c3.682,2.628,7.502,5.142,11.266,7.655
	c2.381,1.592,4.375,3.182,7.367,3.348c2.031,0.111,4.09-0.271,5.995-0.967c1.618-0.592,2.929-1.574,4.739-1.257
	c2.98,0.522,4.785,3.705,5.611,6.343c0.535,1.703,1.352,3.857,2.804,5.006c1.196,0.945,2.716,1.127,4.131,1.529
	c1.817,0.518,3.246,1.322,4.562,2.732c1.131,1.211,2.012,2.888,3.276,3.924c1.546,1.269,4.168,0.769,6.009,1.209
	c1.797,0.431,2.727,1.24,3.996,2.506c1.047,1.043,1.813,2.48,3.346,2.88c1.625,0.423,3.433-0.12,5.065-0.292
	c1.943-0.205,4.21-0.156,6.068,0.531c1.788,0.662,2.653,1.766,3.991,2.979c1.492,1.354,3.19,1.203,5.039,0.65
	c2.072-0.62,2.774-2.037,3.5-3.991c0.566-1.524,0.976-3.261,1-4.892c0.021-1.434-0.24-2.957-0.412-4.379
	c-0.303-2.496-1.642-4.16-2.902-6.319c-1.359-2.326-2.82-4.591-4.326-6.824c-7.531-11.169-12.219-24.003-13.65-37.386
	c-0.864-8.08-1.968-16.085-1.623-24.234c0.441-10.417,1.842-20.878,4.388-30.99c2.47-9.811,5.391-17.986-2.738-25.153
	c-1.535-1.354-11.904-10.245-7.659-12.31c1.896-0.922,4.76,5.529,8.176,4.124c2.432-1.001,4.286-5.819,5.367-7.941
	c2.882-5.656,5.861-12.007,7.296-18.231c1.2-5.212,1.892-11.875,4.808-16.374c2.994-4.618,9.03-7.051,13.375-10.129
	c4.493-3.184,9.496-5.532,13.387-9.5c3.231-3.295,11.892-20.299,5.615-22.899c-2.133-0.884-5.751-1.577-8.03-1.609
	c-1.84-0.026-5.403,2.237-6.983,0.627c-3.912-3.986,4.629-9.094,4.769-12.773c0.182-4.762-5.182-9.377-7.352-13.225
	c-3.425-6.071-7.115-9.568-13.306-13.121c-4.47-2.565-7.452-3.728-12.479-2.764c-5.521,1.059-14.775,2.82-18.521,7.401
	c-1.689,2.067-5.937,10.729-2.221,12.117c1.711,0.639,8.896-4.228,11.621-4.643c8.742-1.33,17.371,3.429,21.137,11.01
	c1.417,2.852,1.278,4.635,3.674,6.815c1.193,1.087,2.832,0.616,3.584,2.766c0.231,0.663-0.319,3.477-0.338,3.45
	c0.266,0.39,0.601,0.71,1.005,0.959c-5.282,7.286-11.774-1.604-18.562,0.014c-4.06,0.969-5.694,7.477-5.39,11.48
	c0.591,7.742,0.261,11.528-4.539,18.07c-4.993,6.805-8.879,14.417-13.571,21.46c-2.771,4.159-5.543,8.41-7.376,12.961
	c-1.596,3.961-2.737,7.977,0.512,11.411c3.22,3.405,6.403,1.93,10.357,1.308c2.416-0.379-1.544,4.859-1.724,5.019
	c-1.816,1.609-4.404,2.277-6.722,2.455c-4.63,0.356-8.422-1.566-10.033,4.322c-2.193,8.013-4.662,15.59-7.403,23.389
	c-2.524,7.183-3.927,13.476-2.723,21.113c0.759,4.811,1.578,9.473,3.723,13.898c1.076,2.221,3.937,5.114,3.299,7.437
	c-5.183-2.147-7.871-10.621-9.785-15.437c-5.038-12.67-0.402-23.932,3.424-36.383c2.015-6.558,6.345-15.508,3.702-22.264
	c-3.802-9.718-9.505-5.419-17.34-5.19C399.184,226.958,398.965,226.957,398.753,226.949z M489.603,264.829
	c-0.202,3.816,2.511,8.529,5.397,9.969c3.067,1.53,3.852,0.467,5.136,4.687c0.447,1.473,0.643,8.785,3.765,7.311
	c1.794-0.849,1.472-7.037,0.746-8.405c-1.338-2.524-4.973-2.342-5.184-5.502c-0.138-2.053,2.738-4.071,3.394-5.974
	c1.209-3.514-1.249-4.624-3.648-2.034c-2.517-5.655,4.985-5.31,8.292-5.469c9.182-0.444,17.219-8.889,14.673-18.362
	c-0.526-1.967-1.993-3.375-3.198-4.938c-1.336-1.733-1.512-3.666-2.558-5.511c-2.37-4.177-7.61-10.718-11.679-13.344
	c-1.711-1.104-3.713-1.277-4.971-2.832c-1.06-1.311-2.551-2.068-4.197-2.357c-3.17-0.557-6.949,0.436-9.332,2.635
	c-1.288,1.188-2.099,2.583-2.876,4.131c-6.252,12.459,2.77,20.011,9.013,30.176c2.353,3.832,4.701,9.989,3.098,14.416
	c-0.279,0.77-0.518,1.319-1.294,1.604c-1.127-1.133-1.91-2.659-3.175-3.696C490.102,262.268,489.674,263.494,489.603,264.829z
	 M482.092,242.769c-0.788-2.563-2.345-4.988-4.979-7.51c-2.984-2.857-5.315-6.539-8.479-9.283
	c-4.896,3.671-9.66,11.295-7.038,17.272c1.512,3.446,4.301,7.265,7.569,9.223c1.441,0.863,12.478,2.957,12.803,1.384
	C482.848,249.598,483.107,246.07,482.092,242.769z"/>
<radialGradient id="XMLID_38_" cx="415.5" cy="258.8989" r="42.2166" gradientUnits="userSpaceOnUse">
	<stop  offset="0" style="stop-color:#8F0000"/>
	<stop  offset="0.0674" style="stop-color:#890101"/>
	<stop  offset="0.1603" style="stop-color:#770404"/>
	<stop  offset="0.264" style="stop-color:#5B0909"/>
	<stop  offset="0.3374" style="stop-color:#760707"/>
	<stop  offset="0.4305" style="stop-color:#900404"/>
	<stop  offset="0.5327" style="stop-color:#A50202"/>
	<stop  offset="0.647" style="stop-color:#B40101"/>
	<stop  offset="0.7835" style="stop-color:#BC0000"/>
	<stop  offset="1" style="stop-color:#BF0000"/>
</radialGradient>
<path fill="url(#XMLID_38_)" stroke="#000000" d="M405.027,264.899c0.74-3.753,4.565-12.617-0.244-15.495
	c-3.365-2.015-6.881,2.301-8.789,4.615c-3.618,4.388-0.802,8.163-0.36,13.28c0.304,3.525-1.202,7.581,0.23,10.625
	c0.479,1.017,2.682,2.425,3.524,3.838c0.969,1.624,1.84,3.682,2.609,5.46C404.531,280.784,403.642,271.938,405.027,264.899z"/>
<g>
	<g>
		<path d="M407.847,21.021v5.64h6.521v-5.64h1.76v13.48h-1.76v-6.32h-6.521v6.32h-1.76v-13.48H407.847z"/>
		<path d="M419.687,24.821l2.101,5.72c0.24,0.64,0.479,1.4,0.64,1.98h0.04c0.18-0.58,0.38-1.32,0.62-2.02l1.92-5.68h1.86l-2.641,6.9
			c-1.26,3.32-2.12,5.02-3.319,6.08c-0.88,0.74-1.721,1.04-2.16,1.12l-0.44-1.48c0.44-0.12,1.021-0.4,1.54-0.86
			c0.48-0.38,1.061-1.06,1.48-1.96c0.08-0.18,0.14-0.3,0.14-0.42c0-0.1-0.04-0.24-0.14-0.44l-3.561-8.94H419.687z"/>
		<path d="M428.467,27.981c0-1.24-0.02-2.24-0.08-3.16h1.58l0.1,1.66h0.04c0.7-1.2,1.86-1.88,3.42-1.88c2.36,0,4.12,1.98,4.12,4.92
			c0,3.48-2.14,5.2-4.399,5.2c-1.3,0-2.4-0.56-2.98-1.52h-0.04v5.26h-1.76V27.981z M430.227,30.561c0,0.24,0.021,0.5,0.08,0.72
			c0.3,1.22,1.38,2.06,2.62,2.06c1.86,0,2.94-1.52,2.94-3.74c0-1.94-1-3.6-2.86-3.6c-1.2,0-2.34,0.84-2.68,2.16
			c-0.04,0.24-0.101,0.5-0.101,0.72V30.561z"/>
		<path d="M443.807,34.721c-2.601,0-4.641-1.92-4.641-4.98c0-3.24,2.141-5.14,4.8-5.14c2.78,0,4.66,2.02,4.66,4.96
			c0,3.6-2.5,5.16-4.8,5.16H443.807z M443.866,33.401c1.68,0,2.94-1.58,2.94-3.78c0-1.64-0.82-3.7-2.9-3.7
			c-2.06,0-2.96,1.92-2.96,3.76c0,2.12,1.2,3.72,2.9,3.72H443.866z"/>
		<path d="M450.846,27.981c0-1.24-0.02-2.24-0.08-3.16h1.58l0.1,1.66h0.04c0.7-1.2,1.86-1.88,3.42-1.88c2.36,0,4.12,1.98,4.12,4.92
			c0,3.48-2.14,5.2-4.399,5.2c-1.3,0-2.4-0.56-2.98-1.52h-0.04v5.26h-1.76V27.981z M452.605,30.561c0,0.24,0.021,0.5,0.08,0.72
			c0.3,1.22,1.38,2.06,2.62,2.06c1.86,0,2.94-1.52,2.94-3.74c0-1.94-1-3.6-2.86-3.6c-1.2,0-2.34,0.84-2.68,2.16
			c-0.04,0.24-0.101,0.5-0.101,0.72V30.561z"/>
		<path d="M462.226,20.301h1.76v14.2h-1.76V20.301z"/>
		<path d="M473.726,32.181c0,0.84,0.04,1.66,0.14,2.32h-1.58l-0.16-1.22h-0.06c-0.521,0.76-1.58,1.44-2.96,1.44
			c-1.96,0-2.96-1.38-2.96-2.78c0-2.34,2.08-3.62,5.819-3.6v-0.2c0-0.8-0.22-2.26-2.199-2.24c-0.92,0-1.86,0.26-2.54,0.72l-0.4-1.18
			c0.8-0.5,1.98-0.84,3.2-0.84c2.979,0,3.7,2.02,3.7,3.96V32.181z M472.005,29.561c-1.92-0.04-4.1,0.3-4.1,2.18
			c0,1.16,0.76,1.68,1.64,1.68c1.28,0,2.101-0.8,2.38-1.62c0.061-0.18,0.08-0.38,0.08-0.56V29.561z"/>
		<path d="M476.306,32.721c0.54,0.32,1.46,0.68,2.34,0.68c1.261,0,1.86-0.62,1.86-1.44c0-0.84-0.5-1.3-1.78-1.78
			c-1.76-0.64-2.58-1.58-2.58-2.74c0-1.56,1.28-2.84,3.341-2.84c0.979,0,1.84,0.26,2.359,0.6l-0.42,1.26
			c-0.38-0.22-1.08-0.56-1.979-0.56c-1.04,0-1.601,0.6-1.601,1.32c0,0.82,0.561,1.18,1.82,1.66c1.66,0.62,2.54,1.46,2.54,2.92
			c0,1.72-1.34,2.92-3.601,2.92c-1.06,0-2.039-0.28-2.72-0.68L476.306,32.721z"/>
		<path d="M486.586,22.501v2.32h2.52v1.34h-2.52v5.22c0,1.2,0.34,1.88,1.32,1.88c0.479,0,0.76-0.04,1.02-0.12l0.08,1.34
			c-0.34,0.12-0.88,0.24-1.56,0.24c-0.82,0-1.48-0.28-1.9-0.74c-0.48-0.54-0.68-1.4-0.68-2.54v-5.28h-1.5v-1.34h1.5v-1.78
			L486.586,22.501z"/>
		<path d="M491.925,23.041c-0.66,0-1.1-0.52-1.1-1.14s0.46-1.12,1.14-1.12s1.12,0.5,1.12,1.12s-0.44,1.14-1.14,1.14H491.925z
			 M491.085,34.501v-9.68h1.76v9.68H491.085z"/>
		<path d="M502.666,34.161c-0.46,0.22-1.48,0.56-2.78,0.56c-2.92,0-4.82-1.98-4.82-4.96c0-2.98,2.04-5.16,5.2-5.16
			c1.04,0,1.96,0.26,2.44,0.52l-0.4,1.34c-0.42-0.22-1.08-0.46-2.04-0.46c-2.22,0-3.42,1.66-3.42,3.68c0,2.24,1.44,3.62,3.36,3.62
			c1,0,1.659-0.24,2.159-0.46L502.666,34.161z"/>
		<path d="M508.965,20.301h1.76v14.2h-1.76V20.301z"/>
		<path d="M514.645,29.961c0.04,2.38,1.54,3.36,3.3,3.36c1.26,0,2.04-0.22,2.681-0.48l0.319,1.24c-0.62,0.28-1.7,0.62-3.24,0.62
			c-2.96,0-4.76-1.98-4.76-4.88c0-2.94,1.74-5.24,4.561-5.24c3.16,0,3.979,2.78,3.979,4.56c0,0.36-0.02,0.64-0.06,0.84
			L514.645,29.961z M519.784,28.701c0.021-1.1-0.46-2.86-2.42-2.86c-1.8,0-2.56,1.64-2.699,2.86H519.784z"/>
		<path d="M523.825,34.501v-8.34h-1.34v-1.34h1.34v-0.46c0-1.36,0.32-2.6,1.14-3.38c0.66-0.64,1.54-0.9,2.34-0.9
			c0.641,0,1.16,0.14,1.5,0.28l-0.22,1.36c-0.28-0.12-0.62-0.22-1.14-0.22c-1.48,0-1.88,1.32-1.88,2.8v0.52h2.34v1.34h-2.32v8.34
			H523.825z"/>
		<path d="M531.845,22.501v2.32h2.52v1.34h-2.52v5.22c0,1.2,0.34,1.88,1.32,1.88c0.479,0,0.76-0.04,1.02-0.12l0.08,1.34
			c-0.34,0.12-0.88,0.24-1.56,0.24c-0.82,0-1.48-0.28-1.9-0.74c-0.48-0.54-0.68-1.4-0.68-2.54v-5.28h-1.5v-1.34h1.5v-1.78
			L531.845,22.501z"/>
		<path d="M406.047,44.301h1.76v6.04h0.04c0.28-0.5,0.721-0.96,1.26-1.24c0.521-0.32,1.141-0.5,1.801-0.5c1.3,0,3.38,0.8,3.38,4.14
			v5.76h-1.76v-5.56c0-1.58-0.58-2.88-2.24-2.88c-1.141,0-2.021,0.8-2.36,1.76c-0.1,0.24-0.12,0.5-0.12,0.84v5.84h-1.76V44.301z"/>
		<path d="M418.146,53.961c0.04,2.38,1.54,3.36,3.3,3.36c1.26,0,2.04-0.22,2.681-0.48l0.319,1.24c-0.62,0.28-1.7,0.62-3.24,0.62
			c-2.96,0-4.76-1.98-4.76-4.88c0-2.94,1.74-5.24,4.561-5.24c3.16,0,3.979,2.78,3.979,4.56c0,0.36-0.02,0.64-0.06,0.84
			L418.146,53.961z M423.286,52.701c0.021-1.1-0.46-2.86-2.42-2.86c-1.8,0-2.56,1.64-2.699,2.86H423.286z"/>
		<path d="M433.987,56.181c0,0.84,0.04,1.66,0.14,2.32h-1.58l-0.16-1.22h-0.06c-0.521,0.76-1.58,1.44-2.96,1.44
			c-1.96,0-2.96-1.38-2.96-2.78c0-2.34,2.08-3.62,5.819-3.6v-0.2c0-0.8-0.22-2.26-2.199-2.24c-0.92,0-1.86,0.26-2.54,0.72l-0.4-1.18
			c0.8-0.5,1.98-0.84,3.2-0.84c2.979,0,3.7,2.02,3.7,3.96V56.181z M432.267,53.561c-1.92-0.04-4.1,0.3-4.1,2.18
			c0,1.16,0.76,1.68,1.64,1.68c1.28,0,2.101-0.8,2.38-1.62c0.061-0.18,0.08-0.38,0.08-0.56V53.561z"/>
		<path d="M436.827,51.841c0-1.14-0.021-2.12-0.08-3.02h1.54l0.079,1.9h0.061c0.439-1.3,1.52-2.12,2.7-2.12
			c0.18,0,0.319,0.02,0.479,0.06v1.64c-0.2-0.02-0.38-0.04-0.62-0.04c-1.239,0-2.12,0.94-2.359,2.24
			c-0.04,0.26-0.061,0.54-0.061,0.84v5.16h-1.76L436.827,51.841z"/>
		<path d="M445.946,46.501v2.32h2.52v1.34h-2.52v5.22c0,1.2,0.34,1.88,1.32,1.88c0.479,0,0.76-0.04,1.02-0.12l0.08,1.34
			c-0.34,0.12-0.88,0.24-1.56,0.24c-0.82,0-1.48-0.28-1.9-0.74c-0.48-0.54-0.68-1.4-0.68-2.54v-5.28h-1.5v-1.34h1.5v-1.78
			L445.946,46.501z"/>
		<path d="M454.445,56.721c0.54,0.32,1.46,0.68,2.34,0.68c1.261,0,1.86-0.62,1.86-1.44c0-0.84-0.5-1.3-1.78-1.78
			c-1.76-0.64-2.58-1.58-2.58-2.74c0-1.56,1.28-2.84,3.341-2.84c0.979,0,1.84,0.26,2.359,0.6l-0.42,1.26
			c-0.38-0.22-1.08-0.56-1.979-0.56c-1.04,0-1.601,0.6-1.601,1.32c0,0.82,0.561,1.18,1.82,1.66c1.66,0.62,2.54,1.46,2.54,2.92
			c0,1.72-1.34,2.92-3.601,2.92c-1.06,0-2.039-0.28-2.72-0.68L454.445,56.721z"/>
		<path d="M463.245,48.821l2.101,5.72c0.24,0.64,0.479,1.4,0.64,1.98h0.04c0.18-0.58,0.38-1.32,0.62-2.02l1.92-5.68h1.86l-2.641,6.9
			c-1.26,3.32-2.12,5.02-3.319,6.08c-0.88,0.74-1.721,1.04-2.16,1.12l-0.44-1.48c0.44-0.12,1.021-0.4,1.54-0.86
			c0.48-0.38,1.061-1.06,1.48-1.96c0.08-0.18,0.14-0.3,0.14-0.42c0-0.1-0.04-0.24-0.14-0.44l-3.561-8.94H463.245z"/>
		<path d="M472.025,51.441c0-1.02-0.02-1.82-0.08-2.62h1.561l0.1,1.58h0.04c0.479-0.9,1.6-1.8,3.2-1.8c1.34,0,3.42,0.8,3.42,4.12
			v5.78h-1.76v-5.58c0-1.56-0.58-2.88-2.24-2.88c-1.141,0-2.04,0.82-2.36,1.8c-0.08,0.22-0.12,0.54-0.12,0.82v5.84h-1.76V51.441z"/>
		<path d="M491.485,44.301v11.7c0,0.86,0.02,1.84,0.08,2.5h-1.58l-0.08-1.68h-0.04c-0.54,1.08-1.7,1.9-3.28,1.9
			c-2.34,0-4.16-1.98-4.16-4.92c-0.02-3.24,2-5.2,4.34-5.2c1.5,0,2.5,0.7,2.92,1.46h0.04v-5.76H491.485z M489.725,52.761
			c0-0.24-0.02-0.52-0.079-0.76c-0.261-1.1-1.221-2.02-2.54-2.02c-1.82,0-2.9,1.6-2.9,3.72c0,1.98,0.979,3.6,2.86,3.6
			c1.18,0,2.26-0.8,2.58-2.1c0.06-0.24,0.079-0.48,0.079-0.76V52.761z"/>
		<path d="M494.426,51.841c0-1.14-0.021-2.12-0.08-3.02h1.54l0.079,1.9h0.061c0.439-1.3,1.52-2.12,2.7-2.12
			c0.18,0,0.319,0.02,0.479,0.06v1.64c-0.2-0.02-0.38-0.04-0.62-0.04c-1.239,0-2.12,0.94-2.359,2.24
			c-0.04,0.26-0.061,0.54-0.061,0.84v5.16h-1.76L494.426,51.841z"/>
		<path d="M504.766,58.721c-2.601,0-4.641-1.92-4.641-4.98c0-3.24,2.141-5.14,4.8-5.14c2.78,0,4.66,2.02,4.66,4.96
			c0,3.6-2.5,5.16-4.8,5.16H504.766z M504.825,57.401c1.68,0,2.94-1.58,2.94-3.78c0-1.64-0.82-3.7-2.9-3.7
			c-2.06,0-2.96,1.92-2.96,3.76c0,2.12,1.2,3.72,2.9,3.72H504.825z"/>
		<path d="M511.806,51.441c0-1.02-0.04-1.82-0.08-2.62h1.54l0.08,1.56h0.06c0.54-0.92,1.44-1.78,3.061-1.78c1.3,0,2.3,0.8,2.72,1.94
			h0.04c0.3-0.56,0.7-0.96,1.1-1.26c0.58-0.44,1.2-0.68,2.12-0.68c1.301,0,3.2,0.84,3.2,4.2v5.7h-1.72v-5.48
			c0-1.88-0.7-2.98-2.101-2.98c-1.02,0-1.779,0.74-2.1,1.58c-0.08,0.26-0.14,0.58-0.14,0.88v6h-1.721v-5.8
			c0-1.56-0.68-2.66-2.02-2.66c-1.08,0-1.9,0.88-2.18,1.76c-0.101,0.26-0.141,0.56-0.141,0.86v5.84h-1.72V51.441z"/>
		<path d="M529.485,53.961c0.04,2.38,1.54,3.36,3.3,3.36c1.26,0,2.04-0.22,2.681-0.48l0.319,1.24c-0.62,0.28-1.7,0.62-3.24,0.62
			c-2.96,0-4.76-1.98-4.76-4.88c0-2.94,1.74-5.24,4.561-5.24c3.159,0,3.979,2.78,3.979,4.56c0,0.36-0.02,0.64-0.06,0.84
			L529.485,53.961z M534.625,52.701c0.021-1.1-0.46-2.86-2.42-2.86c-1.8,0-2.56,1.64-2.699,2.86H534.625z"/>
	</g>
</g>
<g>
	<path d="M535.7,94.419c0.504-0.096,1.164-0.168,2.004-0.168c1.032,0,1.788,0.24,2.269,0.672c0.443,0.384,0.719,0.972,0.719,1.692
		c0,0.732-0.215,1.308-0.635,1.728c-0.553,0.588-1.453,0.888-2.473,0.888c-0.313,0-0.6-0.012-0.84-0.072v3.24H535.7V94.419z
		 M536.744,98.307c0.229,0.06,0.527,0.084,0.863,0.084c1.272,0,2.029-0.624,2.029-1.716c0-1.08-0.757-1.596-1.908-1.596
		c-0.457,0-0.805,0.048-0.984,0.084V98.307z"/>
	<path d="M545.828,101.007c0,0.504,0.024,0.996,0.084,1.392h-0.947l-0.097-0.732h-0.036c-0.312,0.456-0.947,0.864-1.775,0.864
		c-1.176,0-1.776-0.828-1.776-1.668c0-1.404,1.248-2.172,3.492-2.16v-0.12c0-0.48-0.132-1.356-1.32-1.344
		c-0.552,0-1.116,0.156-1.524,0.432l-0.239-0.708c0.479-0.3,1.188-0.504,1.92-0.504c1.788,0,2.22,1.212,2.22,2.376V101.007z
		 M544.797,99.435c-1.152-0.024-2.461,0.18-2.461,1.308c0,0.696,0.457,1.008,0.984,1.008c0.768,0,1.26-0.48,1.428-0.972
		c0.036-0.108,0.049-0.228,0.049-0.336V99.435z"/>
	<path d="M548.744,95.199v1.392h1.512v0.804h-1.512v3.132c0,0.72,0.204,1.128,0.792,1.128c0.288,0,0.456-0.024,0.612-0.072
		l0.048,0.804c-0.204,0.072-0.528,0.144-0.937,0.144c-0.492,0-0.888-0.168-1.14-0.444c-0.288-0.324-0.407-0.84-0.407-1.524v-3.168
		h-0.9v-0.804h0.9v-1.068L548.744,95.199z"/>
	<path d="M551.973,99.675c0.023,1.428,0.924,2.016,1.979,2.016c0.756,0,1.224-0.132,1.608-0.288l0.191,0.744
		c-0.372,0.168-1.02,0.372-1.943,0.372c-1.776,0-2.856-1.188-2.856-2.928c0-1.764,1.044-3.144,2.736-3.144
		c1.896,0,2.388,1.668,2.388,2.736c0,0.216-0.012,0.384-0.036,0.504L551.973,99.675z M555.056,98.919
		c0.013-0.66-0.275-1.716-1.451-1.716c-1.081,0-1.536,0.984-1.62,1.716H555.056z"/>
	<path d="M557.384,98.163c0-0.612-0.012-1.092-0.048-1.572h0.936l0.061,0.948h0.023c0.288-0.54,0.96-1.08,1.92-1.08
		c0.805,0,2.053,0.48,2.053,2.472v3.468h-1.057v-3.348c0-0.936-0.348-1.728-1.344-1.728c-0.684,0-1.224,0.492-1.416,1.08
		c-0.048,0.132-0.072,0.324-0.072,0.492v3.504h-1.056V98.163z"/>
	<path d="M565.269,95.199v1.392h1.512v0.804h-1.512v3.132c0,0.72,0.203,1.128,0.792,1.128c0.287,0,0.456-0.024,0.611-0.072
		l0.048,0.804c-0.203,0.072-0.527,0.144-0.936,0.144c-0.492,0-0.888-0.168-1.14-0.444c-0.288-0.324-0.408-0.84-0.408-1.524v-3.168
		h-0.9v-0.804h0.9v-1.068L565.269,95.199z"/>
	<path d="M572.792,94.071c-0.876,1.188-1.5,2.736-1.5,4.92c0,2.136,0.66,3.66,1.5,4.86h-0.816c-0.756-0.996-1.572-2.532-1.572-4.872
		c0.013-2.352,0.816-3.9,1.572-4.908H572.792z"/>
	<path d="M576.284,102.531c-1.561,0-2.784-1.152-2.784-2.988c0-1.944,1.284-3.084,2.88-3.084c1.668,0,2.796,1.212,2.796,2.976
		c0,2.16-1.5,3.096-2.88,3.096H576.284z M576.32,101.739c1.008,0,1.764-0.948,1.764-2.268c0-0.984-0.492-2.22-1.74-2.22
		c-1.235,0-1.775,1.152-1.775,2.256c0,1.272,0.72,2.232,1.739,2.232H576.32z"/>
	<path d="M580.508,98.487c0-0.744-0.012-1.344-0.048-1.896h0.948l0.06,0.996h0.024c0.42-0.72,1.115-1.128,2.052-1.128
		c1.416,0,2.472,1.188,2.472,2.952c0,2.088-1.284,3.12-2.64,3.12c-0.78,0-1.44-0.336-1.788-0.912h-0.024v3.156h-1.056V98.487z
		 M581.563,100.035c0,0.144,0.013,0.3,0.049,0.432c0.18,0.732,0.827,1.236,1.571,1.236c1.116,0,1.765-0.912,1.765-2.244
		c0-1.164-0.601-2.16-1.717-2.16c-0.72,0-1.403,0.504-1.607,1.296c-0.024,0.144-0.061,0.3-0.061,0.432V100.035z"/>
	<path d="M587.947,99.675c0.024,1.428,0.925,2.016,1.98,2.016c0.756,0,1.224-0.132,1.608-0.288l0.191,0.744
		c-0.372,0.168-1.02,0.372-1.944,0.372c-1.775,0-2.855-1.188-2.855-2.928c0-1.764,1.044-3.144,2.736-3.144
		c1.896,0,2.388,1.668,2.388,2.736c0,0.216-0.012,0.384-0.036,0.504L587.947,99.675z M591.031,98.919
		c0.013-0.66-0.275-1.716-1.451-1.716c-1.08,0-1.536,0.984-1.62,1.716H591.031z"/>
	<path d="M593.359,98.163c0-0.612-0.012-1.092-0.048-1.572h0.936l0.061,0.948h0.023c0.288-0.54,0.96-1.08,1.92-1.08
		c0.805,0,2.053,0.48,2.053,2.472v3.468h-1.057v-3.348c0-0.936-0.348-1.728-1.344-1.728c-0.684,0-1.224,0.492-1.416,1.08
		c-0.048,0.132-0.072,0.324-0.072,0.492v3.504h-1.056V98.163z"/>
	<path d="M599.384,103.851c0.84-1.188,1.5-2.736,1.5-4.896c0-2.16-0.648-3.684-1.5-4.884h0.815c0.756,0.984,1.572,2.532,1.572,4.884
		c-0.012,2.352-0.816,3.876-1.572,4.896H599.384z"/>
	<path d="M532.742,108.279v7.02c0,0.516,0.012,1.104,0.048,1.5h-0.948l-0.048-1.008h-0.024c-0.323,0.648-1.02,1.14-1.967,1.14
		c-1.404,0-2.496-1.188-2.496-2.952c-0.013-1.944,1.199-3.12,2.604-3.12c0.9,0,1.5,0.42,1.752,0.876h0.023v-3.456H532.742z
		 M531.686,113.355c0-0.144-0.012-0.312-0.047-0.456c-0.156-0.66-0.732-1.212-1.524-1.212c-1.093,0-1.74,0.96-1.74,2.232
		c0,1.188,0.588,2.16,1.716,2.16c0.709,0,1.356-0.48,1.549-1.26c0.035-0.144,0.047-0.288,0.047-0.456V113.355z"/>
	<path d="M539.354,115.215c0,0.6,0.013,1.128,0.049,1.584h-0.936l-0.061-0.948h-0.023c-0.265,0.468-0.889,1.08-1.92,1.08
		c-0.912,0-2.005-0.516-2.005-2.544v-3.396h1.056v3.204c0,1.104,0.349,1.86,1.297,1.86c0.707,0,1.199-0.492,1.392-0.972
		c0.06-0.144,0.097-0.336,0.097-0.54v-3.552h1.055V115.215z"/>
	<path d="M545.246,116.595c-0.275,0.132-0.889,0.336-1.668,0.336c-1.752,0-2.893-1.188-2.893-2.976c0-1.788,1.225-3.096,3.121-3.096
		c0.623,0,1.176,0.156,1.463,0.312l-0.24,0.804c-0.252-0.132-0.647-0.276-1.223-0.276c-1.332,0-2.053,0.996-2.053,2.208
		c0,1.344,0.864,2.172,2.016,2.172c0.601,0,0.996-0.144,1.297-0.276L545.246,116.595z"/>
	<path d="M547.91,109.599v1.392h1.512v0.804h-1.512v3.132c0,0.72,0.203,1.128,0.791,1.128c0.289,0,0.457-0.024,0.613-0.072
		l0.047,0.804c-0.203,0.072-0.527,0.144-0.936,0.144c-0.492,0-0.889-0.168-1.141-0.444c-0.287-0.324-0.407-0.84-0.407-1.524v-3.168
		h-0.9v-0.804h0.9v-1.068L547.91,109.599z"/>
	<path d="M555.47,115.215c0,0.6,0.012,1.128,0.048,1.584h-0.936l-0.061-0.948h-0.023c-0.264,0.468-0.888,1.08-1.92,1.08
		c-0.912,0-2.004-0.516-2.004-2.544v-3.396h1.056v3.204c0,1.104,0.349,1.86,1.296,1.86c0.708,0,1.2-0.492,1.393-0.972
		c0.06-0.144,0.096-0.336,0.096-0.54v-3.552h1.056V115.215z"/>
	<path d="M557.078,115.731c0.323,0.192,0.876,0.408,1.403,0.408c0.756,0,1.116-0.372,1.116-0.864c0-0.504-0.3-0.78-1.068-1.068
		c-1.056-0.384-1.548-0.948-1.548-1.644c0-0.936,0.769-1.704,2.004-1.704c0.588,0,1.104,0.156,1.416,0.36l-0.252,0.756
		c-0.228-0.132-0.647-0.336-1.188-0.336c-0.624,0-0.96,0.36-0.96,0.792c0,0.492,0.336,0.708,1.092,0.996
		c0.996,0.372,1.524,0.876,1.524,1.752c0,1.032-0.805,1.752-2.16,1.752c-0.637,0-1.225-0.168-1.632-0.408L557.078,115.731z"/>
	<path d="M568.609,115.407c0,0.504,0.024,0.996,0.084,1.392h-0.947l-0.097-0.732h-0.036c-0.312,0.456-0.947,0.864-1.775,0.864
		c-1.177,0-1.776-0.828-1.776-1.668c0-1.404,1.248-2.172,3.492-2.16v-0.12c0-0.48-0.132-1.356-1.32-1.344
		c-0.552,0-1.116,0.156-1.523,0.432l-0.24-0.708c0.479-0.3,1.188-0.504,1.92-0.504c1.788,0,2.22,1.212,2.22,2.376V115.407z
		 M567.577,113.835c-1.151-0.024-2.46,0.18-2.46,1.308c0,0.696,0.456,1.008,0.984,1.008c0.768,0,1.26-0.48,1.428-0.972
		c0.036-0.108,0.048-0.228,0.048-0.336V113.835z"/>
	<path d="M570.313,112.803c0-0.684-0.012-1.272-0.048-1.812h0.924l0.049,1.14h0.035c0.265-0.78,0.912-1.272,1.62-1.272
		c0.108,0,0.192,0.012,0.288,0.036v0.984c-0.12-0.012-0.228-0.024-0.372-0.024c-0.744,0-1.271,0.564-1.416,1.344
		c-0.023,0.156-0.036,0.324-0.036,0.504v3.096h-1.056L570.313,112.803z"/>
	<path d="M575.785,109.599v1.392h1.512v0.804h-1.512v3.132c0,0.72,0.203,1.128,0.792,1.128c0.287,0,0.456-0.024,0.611-0.072
		l0.048,0.804c-0.203,0.072-0.527,0.144-0.936,0.144c-0.492,0-0.888-0.168-1.14-0.444c-0.288-0.324-0.408-0.84-0.408-1.524v-3.168
		h-0.9v-0.804h0.9v-1.068L575.785,109.599z"/>
	<path d="M579.013,114.075c0.024,1.428,0.925,2.016,1.98,2.016c0.756,0,1.224-0.132,1.608-0.288l0.191,0.744
		c-0.372,0.168-1.02,0.372-1.943,0.372c-1.776,0-2.856-1.188-2.856-2.928c0-1.764,1.044-3.144,2.736-3.144
		c1.896,0,2.388,1.668,2.388,2.736c0,0.216-0.012,0.384-0.036,0.504L579.013,114.075z M582.097,113.319
		c0.013-0.66-0.275-1.716-1.451-1.716c-1.08,0-1.536,0.984-1.62,1.716H582.097z"/>
	<path d="M584.437,112.803c0-0.684-0.012-1.272-0.048-1.812h0.924l0.049,1.14h0.035c0.265-0.78,0.912-1.272,1.62-1.272
		c0.108,0,0.192,0.012,0.288,0.036v0.984c-0.12-0.012-0.228-0.024-0.372-0.024c-0.744,0-1.271,0.564-1.416,1.344
		c-0.023,0.156-0.036,0.324-0.036,0.504v3.096h-1.056L584.437,112.803z"/>
	<path d="M588.901,109.923c-0.396,0-0.66-0.312-0.66-0.684s0.276-0.672,0.685-0.672s0.672,0.3,0.672,0.672s-0.264,0.684-0.685,0.684
		H588.901z M588.397,116.799v-5.808h1.056v5.808H588.397z"/>
	<path d="M593.569,116.931c-1.561,0-2.784-1.152-2.784-2.988c0-1.944,1.284-3.084,2.88-3.084c1.668,0,2.796,1.212,2.796,2.976
		c0,2.16-1.5,3.096-2.88,3.096H593.569z M593.605,116.139c1.008,0,1.764-0.948,1.764-2.268c0-0.984-0.492-2.22-1.74-2.22
		c-1.235,0-1.775,1.152-1.775,2.256c0,1.272,0.72,2.232,1.739,2.232H593.605z"/>
	<path d="M597.649,115.731c0.323,0.192,0.876,0.408,1.403,0.408c0.756,0,1.116-0.372,1.116-0.864c0-0.504-0.3-0.78-1.068-1.068
		c-1.056-0.384-1.548-0.948-1.548-1.644c0-0.936,0.769-1.704,2.004-1.704c0.588,0,1.104,0.156,1.416,0.36l-0.252,0.756
		c-0.228-0.132-0.647-0.336-1.188-0.336c-0.624,0-0.96,0.36-0.96,0.792c0,0.492,0.336,0.708,1.092,0.996
		c0.996,0.372,1.524,0.876,1.524,1.752c0,1.032-0.805,1.752-2.16,1.752c-0.637,0-1.225-0.168-1.632-0.408L597.649,115.731z"/>
	<path d="M607.405,115.215c0,0.6,0.012,1.128,0.048,1.584h-0.937l-0.06-0.948h-0.024c-0.264,0.468-0.888,1.08-1.92,1.08
		c-0.912,0-2.004-0.516-2.004-2.544v-3.396h1.057v3.204c0,1.104,0.348,1.86,1.296,1.86c0.708,0,1.199-0.492,1.392-0.972
		c0.06-0.144,0.096-0.336,0.096-0.54v-3.552h1.057V115.215z"/>
	<path d="M609.014,115.731c0.323,0.192,0.876,0.408,1.403,0.408c0.756,0,1.116-0.372,1.116-0.864c0-0.504-0.3-0.78-1.068-1.068
		c-1.056-0.384-1.548-0.948-1.548-1.644c0-0.936,0.769-1.704,2.004-1.704c0.588,0,1.104,0.156,1.416,0.36l-0.252,0.756
		c-0.228-0.132-0.647-0.336-1.188-0.336c-0.624,0-0.96,0.36-0.96,0.792c0,0.492,0.336,0.708,1.092,0.996
		c0.996,0.372,1.524,0.876,1.524,1.752c0,1.032-0.805,1.752-2.16,1.752c-0.637,0-1.225-0.168-1.632-0.408L609.014,115.731z"/>
</g>
<path fill="none" stroke="#FF0000" stroke-width="2" d="M504.45,131.649c4.114,4.604,6.584,10.497,6.584,16.92
	c0,14.728-12.983,26.667-29,26.667s-29-11.939-29-26.667c0-14.728,12.983-26.667,29-26.667
	C491.065,121.903,499.132,125.699,504.45,131.649z"/>
<line fill="none" stroke="#FF0000" stroke-width="2" x1="529.018" y1="107.083" x2="502.107" y2="129.332"/>
<g>
	<path d="M561.155,253.793c0.468,0.3,1.14,0.527,1.86,0.527c1.068,0,1.691-0.551,1.691-1.379c0-0.744-0.432-1.188-1.523-1.597
		c-1.32-0.479-2.137-1.176-2.137-2.304c0-1.26,1.045-2.196,2.617-2.196c0.815,0,1.428,0.192,1.775,0.396l-0.288,0.853
		c-0.252-0.155-0.792-0.384-1.524-0.384c-1.104,0-1.523,0.66-1.523,1.212c0,0.756,0.492,1.128,1.607,1.56
		c1.369,0.541,2.053,1.188,2.053,2.377c0,1.248-0.912,2.34-2.82,2.34c-0.779,0-1.632-0.24-2.064-0.528L561.155,253.793z"/>
	<path d="M567.155,250.83c0-0.612-0.024-1.093-0.048-1.572h0.924l0.048,0.937h0.036c0.324-0.553,0.864-1.068,1.836-1.068
		c0.78,0,1.381,0.48,1.633,1.164h0.023c0.18-0.336,0.42-0.576,0.66-0.756c0.348-0.264,0.72-0.408,1.271-0.408
		c0.78,0,1.92,0.504,1.92,2.52v3.42h-1.031v-3.287c0-1.129-0.42-1.789-1.26-1.789c-0.613,0-1.068,0.445-1.261,0.949
		c-0.048,0.155-0.084,0.348-0.084,0.527v3.6h-1.032v-3.479c0-0.937-0.408-1.597-1.212-1.597c-0.647,0-1.14,0.529-1.308,1.057
		c-0.061,0.156-0.084,0.336-0.084,0.516v3.504h-1.032V250.83z"/>
	<path d="M581.256,253.673c0,0.504,0.023,0.996,0.084,1.392h-0.948l-0.097-0.731h-0.035c-0.313,0.456-0.948,0.864-1.776,0.864
		c-1.176,0-1.776-0.828-1.776-1.668c0-1.404,1.248-2.172,3.492-2.16v-0.12c0-0.479-0.132-1.356-1.32-1.345
		c-0.551,0-1.115,0.156-1.523,0.433l-0.24-0.708c0.48-0.3,1.188-0.504,1.92-0.504c1.789,0,2.221,1.212,2.221,2.376V253.673z
		 M580.224,252.102c-1.151-0.024-2.46,0.18-2.46,1.307c0,0.697,0.456,1.009,0.984,1.009c0.768,0,1.26-0.479,1.428-0.972
		c0.035-0.108,0.048-0.229,0.048-0.336V252.102z"/>
	<path d="M582.947,246.545h1.057v8.52h-1.057V246.545z"/>
	<path d="M585.756,246.545h1.056v8.52h-1.056V246.545z"/>
	<path d="M593.388,246.737c-0.876,1.188-1.5,2.736-1.5,4.92c0,2.137,0.659,3.66,1.5,4.861h-0.816
		c-0.756-0.996-1.571-2.533-1.571-4.873c0.012-2.352,0.815-3.899,1.571-4.908H593.388z"/>
	<path d="M594.516,246.545h1.056v3.624h0.024c0.168-0.3,0.432-0.576,0.756-0.744c0.312-0.192,0.684-0.3,1.08-0.3
		c0.779,0,2.027,0.48,2.027,2.484v3.455h-1.056v-3.336c0-0.947-0.349-1.728-1.345-1.728c-0.684,0-1.211,0.479-1.416,1.056
		c-0.06,0.145-0.071,0.301-0.071,0.504v3.504h-1.056V246.545z"/>
	<path d="M601.402,249.257l1.261,3.433c0.144,0.383,0.288,0.84,0.384,1.188h0.024c0.108-0.348,0.228-0.792,0.372-1.212l1.152-3.408
		h1.115l-1.584,4.14c-0.756,1.992-1.271,3.013-1.992,3.648c-0.527,0.443-1.031,0.624-1.296,0.672l-0.264-0.888
		c0.264-0.072,0.612-0.24,0.924-0.517c0.288-0.228,0.636-0.636,0.888-1.176c0.049-0.107,0.084-0.18,0.084-0.252
		c0-0.061-0.023-0.145-0.084-0.264l-2.136-5.364H601.402z"/>
	<path d="M606.671,251.153c0-0.744-0.013-1.344-0.048-1.896h0.947l0.061,0.996h0.023c0.42-0.72,1.117-1.128,2.053-1.128
		c1.416,0,2.472,1.188,2.472,2.952c0,2.088-1.284,3.12-2.64,3.12c-0.78,0-1.439-0.336-1.788-0.912h-0.024v3.156h-1.056V251.153z
		 M607.727,252.702c0,0.144,0.012,0.3,0.049,0.432c0.18,0.732,0.828,1.236,1.572,1.236c1.115,0,1.764-0.912,1.764-2.244
		c0-1.164-0.601-2.16-1.717-2.16c-0.72,0-1.404,0.504-1.607,1.296c-0.024,0.144-0.061,0.3-0.061,0.433V252.702z"/>
	<path d="M615.875,255.198c-1.561,0-2.784-1.152-2.784-2.988c0-1.943,1.284-3.084,2.88-3.084c1.668,0,2.796,1.212,2.796,2.977
		c0,2.159-1.5,3.096-2.88,3.096H615.875z M615.91,254.405c1.009,0,1.765-0.947,1.765-2.268c0-0.984-0.492-2.22-1.74-2.22
		c-1.235,0-1.776,1.151-1.776,2.256c0,1.272,0.721,2.231,1.74,2.231H615.91z"/>
	<path d="M620.099,251.153c0-0.744-0.013-1.344-0.048-1.896h0.947l0.061,0.996h0.023c0.42-0.72,1.117-1.128,2.053-1.128
		c1.416,0,2.472,1.188,2.472,2.952c0,2.088-1.284,3.12-2.64,3.12c-0.78,0-1.439-0.336-1.788-0.912h-0.024v3.156h-1.056V251.153z
		 M621.154,252.702c0,0.144,0.012,0.3,0.049,0.432c0.18,0.732,0.828,1.236,1.572,1.236c1.115,0,1.764-0.912,1.764-2.244
		c0-1.164-0.601-2.16-1.717-2.16c-0.72,0-1.404,0.504-1.607,1.296c-0.024,0.144-0.061,0.3-0.061,0.433V252.702z"/>
	<path d="M626.927,246.545h1.056v8.52h-1.056V246.545z"/>
	<path d="M633.826,253.673c0,0.504,0.024,0.996,0.084,1.392h-0.947l-0.097-0.731h-0.036c-0.312,0.456-0.947,0.864-1.775,0.864
		c-1.177,0-1.776-0.828-1.776-1.668c0-1.404,1.248-2.172,3.492-2.16v-0.12c0-0.479-0.132-1.356-1.32-1.345
		c-0.552,0-1.116,0.156-1.523,0.433l-0.24-0.708c0.479-0.3,1.188-0.504,1.92-0.504c1.788,0,2.22,1.212,2.22,2.376V253.673z
		 M632.794,252.102c-1.151-0.024-2.46,0.18-2.46,1.307c0,0.697,0.456,1.009,0.984,1.009c0.768,0,1.26-0.479,1.428-0.972
		c0.036-0.108,0.048-0.229,0.048-0.336V252.102z"/>
	<path d="M635.375,253.998c0.323,0.192,0.876,0.407,1.403,0.407c0.756,0,1.116-0.371,1.116-0.863c0-0.504-0.3-0.78-1.068-1.068
		c-1.056-0.384-1.548-0.947-1.548-1.644c0-0.937,0.769-1.704,2.004-1.704c0.588,0,1.104,0.156,1.416,0.359l-0.252,0.756
		c-0.228-0.131-0.647-0.336-1.188-0.336c-0.624,0-0.96,0.361-0.96,0.793c0,0.492,0.336,0.707,1.092,0.996
		c0.996,0.371,1.524,0.875,1.524,1.752c0,1.031-0.805,1.752-2.16,1.752c-0.637,0-1.225-0.168-1.632-0.408L635.375,253.998z"/>
	<path d="M641.543,247.866v1.392h1.512v0.804h-1.512v3.133c0,0.72,0.203,1.127,0.792,1.127c0.287,0,0.456-0.023,0.611-0.071
		l0.048,0.804c-0.203,0.072-0.527,0.145-0.936,0.145c-0.492,0-0.888-0.168-1.14-0.444c-0.288-0.324-0.408-0.84-0.408-1.524v-3.168
		h-0.9v-0.804h0.9v-1.067L641.543,247.866z"/>
	<path d="M644.746,248.19c-0.396,0-0.66-0.313-0.66-0.685s0.276-0.672,0.685-0.672s0.672,0.3,0.672,0.672s-0.264,0.685-0.685,0.685
		H644.746z M644.242,255.065v-5.808h1.056v5.808H644.242z"/>
	<path d="M651.19,254.862c-0.275,0.132-0.888,0.336-1.668,0.336c-1.752,0-2.892-1.188-2.892-2.977c0-1.787,1.224-3.096,3.12-3.096
		c0.624,0,1.176,0.156,1.464,0.313l-0.24,0.803c-0.252-0.131-0.647-0.275-1.224-0.275c-1.332,0-2.052,0.996-2.052,2.208
		c0,1.345,0.863,2.172,2.016,2.172c0.6,0,0.996-0.144,1.296-0.276L651.19,254.862z"/>
	<path d="M651.79,256.518c0.84-1.188,1.5-2.736,1.5-4.896s-0.648-3.684-1.5-4.885h0.815c0.757,0.984,1.572,2.533,1.572,4.885
		c-0.012,2.352-0.815,3.876-1.572,4.896H651.79z"/>
	<path d="M568.842,260.946h1.057v8.52h-1.057V260.946z"/>
	<path d="M572.25,266.741c0.023,1.429,0.924,2.017,1.98,2.017c0.756,0,1.224-0.132,1.607-0.288l0.191,0.744
		c-0.371,0.168-1.02,0.372-1.943,0.372c-1.775,0-2.855-1.188-2.855-2.929c0-1.764,1.043-3.144,2.735-3.144
		c1.896,0,2.388,1.668,2.388,2.736c0,0.216-0.012,0.384-0.035,0.504L572.25,266.741z M575.334,265.985
		c0.012-0.66-0.275-1.715-1.452-1.715c-1.08,0-1.536,0.983-1.62,1.715H575.334z"/>
	<path d="M577.758,269.465v-5.004h-0.805v-0.805h0.805v-0.275c0-0.816,0.191-1.561,0.684-2.027c0.396-0.385,0.924-0.541,1.404-0.541
		c0.384,0,0.695,0.084,0.9,0.168l-0.133,0.816c-0.168-0.072-0.371-0.133-0.684-0.133c-0.889,0-1.128,0.793-1.128,1.681v0.312h1.403
		v0.805h-1.392v5.004H577.758z"/>
	<path d="M582.569,262.265v1.392h1.513v0.805h-1.513v3.132c0,0.72,0.204,1.128,0.792,1.128c0.288,0,0.456-0.023,0.612-0.072
		l0.048,0.805c-0.204,0.072-0.528,0.144-0.936,0.144c-0.492,0-0.889-0.168-1.141-0.444c-0.288-0.324-0.408-0.84-0.408-1.523v-3.168
		h-0.9v-0.805h0.9v-1.067L582.569,262.265z"/>
	<path d="M588.221,263.657l1.141,3.252c0.191,0.541,0.348,1.021,0.468,1.5h0.036c0.132-0.479,0.3-0.959,0.492-1.5l1.127-3.252h1.104
		l-2.28,5.809h-1.008l-2.208-5.809H588.221z"/>
	<path d="M594.053,266.741c0.024,1.429,0.924,2.017,1.98,2.017c0.756,0,1.225-0.132,1.607-0.288l0.192,0.744
		c-0.372,0.168-1.021,0.372-1.944,0.372c-1.775,0-2.855-1.188-2.855-2.929c0-1.764,1.044-3.144,2.736-3.144
		c1.896,0,2.388,1.668,2.388,2.736c0,0.216-0.013,0.384-0.036,0.504L594.053,266.741z M597.137,265.985
		c0.013-0.66-0.275-1.715-1.451-1.715c-1.08,0-1.537,0.983-1.621,1.715H597.137z"/>
	<path d="M599.465,265.229c0-0.611-0.012-1.092-0.048-1.572h0.937l0.06,0.949h0.024c0.287-0.541,0.959-1.08,1.92-1.08
		c0.804,0,2.051,0.479,2.051,2.471v3.469h-1.055v-3.348c0-0.937-0.349-1.729-1.345-1.729c-0.685,0-1.224,0.492-1.416,1.08
		c-0.048,0.132-0.071,0.324-0.071,0.492v3.504h-1.057V265.229z"/>
	<path d="M607.35,262.265v1.392h1.512v0.805h-1.512v3.132c0,0.72,0.203,1.128,0.791,1.128c0.289,0,0.457-0.023,0.613-0.072
		l0.047,0.805c-0.203,0.072-0.527,0.144-0.936,0.144c-0.492,0-0.889-0.168-1.141-0.444c-0.287-0.324-0.407-0.84-0.407-1.523v-3.168
		h-0.9v-0.805h0.9v-1.067L607.35,262.265z"/>
	<path d="M610.061,265.469c0-0.684-0.012-1.271-0.048-1.813h0.925l0.047,1.141h0.037c0.264-0.78,0.911-1.271,1.619-1.271
		c0.108,0,0.192,0.012,0.288,0.035v0.984c-0.12-0.012-0.228-0.023-0.372-0.023c-0.744,0-1.271,0.563-1.416,1.344
		c-0.023,0.156-0.035,0.324-0.035,0.504v3.096h-1.057L610.061,265.469z"/>
	<path d="M614.525,262.589c-0.396,0-0.66-0.312-0.66-0.685c0-0.371,0.275-0.672,0.684-0.672s0.672,0.301,0.672,0.672
		c0,0.373-0.264,0.685-0.684,0.685H614.525z M614.021,269.465v-5.809h1.056v5.809H614.021z"/>
	<path d="M620.969,269.261c-0.275,0.132-0.889,0.336-1.668,0.336c-1.752,0-2.893-1.188-2.893-2.976c0-1.788,1.225-3.096,3.121-3.096
		c0.623,0,1.176,0.155,1.463,0.312l-0.24,0.804c-0.252-0.132-0.647-0.275-1.223-0.275c-1.332,0-2.053,0.996-2.053,2.207
		c0,1.345,0.864,2.172,2.016,2.172c0.601,0,0.996-0.143,1.297-0.275L620.969,269.261z"/>
	<path d="M627.064,267.881c0,0.6,0.012,1.128,0.049,1.584h-0.937l-0.06-0.948h-0.024c-0.265,0.468-0.888,1.08-1.92,1.08
		c-0.912,0-2.005-0.516-2.005-2.544v-3.396h1.057v3.205c0,1.104,0.348,1.859,1.296,1.859c0.708,0,1.2-0.492,1.392-0.972
		c0.061-0.144,0.097-0.337,0.097-0.54v-3.553h1.056V267.881z"/>
	<path d="M628.816,260.946h1.057v8.52h-1.057V260.946z"/>
	<path d="M636.485,267.881c0,0.6,0.012,1.128,0.048,1.584h-0.937l-0.06-0.948h-0.024c-0.264,0.468-0.888,1.08-1.92,1.08
		c-0.912,0-2.004-0.516-2.004-2.544v-3.396h1.057v3.205c0,1.104,0.348,1.859,1.296,1.859c0.708,0,1.199-0.492,1.392-0.972
		c0.06-0.144,0.096-0.337,0.096-0.54v-3.553h1.057V267.881z"/>
	<path d="M638.236,265.229c0-0.611-0.024-1.092-0.048-1.572h0.924l0.048,0.937h0.036c0.324-0.552,0.864-1.067,1.836-1.067
		c0.78,0,1.38,0.479,1.632,1.164h0.024c0.18-0.336,0.42-0.576,0.66-0.757c0.348-0.264,0.72-0.407,1.271-0.407
		c0.78,0,1.92,0.504,1.92,2.52v3.42h-1.031v-3.288c0-1.128-0.42-1.788-1.261-1.788c-0.611,0-1.067,0.444-1.26,0.948
		c-0.048,0.155-0.084,0.349-0.084,0.528v3.6h-1.032v-3.48c0-0.936-0.407-1.596-1.212-1.596c-0.647,0-1.14,0.528-1.308,1.057
		c-0.061,0.155-0.084,0.336-0.084,0.516v3.504h-1.032V265.229z"/>
</g>
<path fill="none" stroke="#FF0000" stroke-width="2" d="M523.996,267.237c1.023,6.089-0.032,12.391-3.459,17.823
	c-7.857,12.457-25.209,15.628-38.756,7.083c-13.546-8.545-18.157-25.57-10.299-38.027c7.856-12.456,25.208-15.627,38.755-7.081
	C517.875,251.853,522.673,259.367,523.996,267.237z"/>
<line fill="none" stroke="#FF0000" stroke-width="2" x1="557.882" y1="259.567" x2="523.251" y2="264.027"/>
<g>
	<path d="M274.047,96.46c0.468,0.3,1.14,0.528,1.86,0.528c1.068,0,1.692-0.552,1.692-1.38c0-0.744-0.432-1.188-1.524-1.596
		c-1.32-0.48-2.136-1.176-2.136-2.304c0-1.26,1.044-2.196,2.616-2.196c0.816,0,1.428,0.192,1.776,0.396l-0.288,0.852
		c-0.252-0.156-0.792-0.384-1.524-0.384c-1.104,0-1.524,0.66-1.524,1.212c0,0.756,0.492,1.128,1.608,1.56
		c1.368,0.54,2.052,1.188,2.052,2.376c0,1.248-0.912,2.34-2.82,2.34c-0.78,0-1.632-0.24-2.064-0.528L274.047,96.46z"/>
	<path d="M280.047,93.497c0-0.612-0.024-1.092-0.048-1.572h0.924l0.048,0.936h0.036c0.324-0.552,0.864-1.068,1.836-1.068
		c0.78,0,1.38,0.48,1.632,1.164h0.024c0.18-0.336,0.42-0.576,0.66-0.756c0.348-0.264,0.72-0.408,1.272-0.408
		c0.78,0,1.92,0.504,1.92,2.52v3.42h-1.032v-3.288c0-1.128-0.42-1.788-1.26-1.788c-0.612,0-1.068,0.444-1.26,0.948
		c-0.048,0.156-0.084,0.348-0.084,0.528v3.6h-1.032v-3.48c0-0.936-0.408-1.596-1.212-1.596c-0.648,0-1.14,0.528-1.308,1.056
		c-0.06,0.156-0.084,0.336-0.084,0.516v3.504h-1.032V93.497z"/>
	<path d="M294.147,96.34c0,0.504,0.024,0.996,0.084,1.392h-0.948L293.187,97h-0.036c-0.312,0.456-0.948,0.864-1.776,0.864
		c-1.176,0-1.776-0.828-1.776-1.668c0-1.404,1.248-2.172,3.492-2.16v-0.12c0-0.48-0.132-1.356-1.32-1.344
		c-0.552,0-1.116,0.156-1.524,0.432l-0.24-0.708c0.48-0.3,1.188-0.504,1.92-0.504c1.788,0,2.22,1.212,2.22,2.376V96.34z
		 M293.115,94.769c-1.152-0.024-2.46,0.18-2.46,1.308c0,0.696,0.456,1.008,0.984,1.008c0.768,0,1.26-0.48,1.428-0.972
		c0.036-0.108,0.048-0.228,0.048-0.336V94.769z"/>
	<path d="M295.839,89.212h1.056v8.52h-1.056V89.212z"/>
	<path d="M298.647,89.212h1.056v8.52h-1.056V89.212z"/>
	<path d="M306.279,89.404c-0.877,1.188-1.5,2.736-1.5,4.92c0,2.136,0.66,3.66,1.5,4.86h-0.816c-0.756-0.996-1.572-2.532-1.572-4.872
		c0.012-2.352,0.816-3.9,1.572-4.908H306.279z"/>
	<path d="M307.406,89.212h1.057v3.624h0.023c0.168-0.3,0.433-0.576,0.756-0.744c0.313-0.192,0.685-0.3,1.08-0.3
		c0.78,0,2.028,0.48,2.028,2.484v3.456h-1.056v-3.336c0-0.948-0.348-1.728-1.344-1.728c-0.685,0-1.213,0.48-1.416,1.056
		c-0.061,0.144-0.072,0.3-0.072,0.504v3.504h-1.057V89.212z"/>
	<path d="M314.295,91.924l1.26,3.432c0.145,0.384,0.288,0.84,0.384,1.188h0.024c0.107-0.348,0.229-0.792,0.371-1.212l1.152-3.408
		h1.116l-1.584,4.14c-0.756,1.992-1.272,3.012-1.991,3.648c-0.529,0.444-1.033,0.624-1.297,0.672l-0.264-0.888
		c0.264-0.072,0.611-0.24,0.924-0.516c0.288-0.228,0.637-0.636,0.889-1.176c0.047-0.108,0.084-0.18,0.084-0.252
		c0-0.06-0.024-0.144-0.084-0.264l-2.137-5.364H314.295z"/>
	<path d="M319.563,93.82c0-0.744-0.012-1.344-0.048-1.896h0.948l0.06,0.996h0.024c0.42-0.72,1.115-1.128,2.052-1.128
		c1.416,0,2.472,1.188,2.472,2.952c0,2.088-1.283,3.12-2.64,3.12c-0.78,0-1.44-0.336-1.788-0.912h-0.023v3.156h-1.057V93.82z
		 M320.619,95.368c0,0.144,0.012,0.3,0.047,0.432c0.181,0.732,0.828,1.236,1.572,1.236c1.116,0,1.764-0.912,1.764-2.244
		c0-1.164-0.6-2.16-1.715-2.16c-0.721,0-1.404,0.504-1.608,1.296c-0.024,0.144-0.06,0.3-0.06,0.432V95.368z"/>
	<path d="M328.767,97.864c-1.56,0-2.784-1.152-2.784-2.988c0-1.944,1.284-3.084,2.88-3.084c1.668,0,2.796,1.212,2.796,2.976
		c0,2.16-1.5,3.096-2.88,3.096H328.767z M328.803,97.072c1.008,0,1.764-0.948,1.764-2.268c0-0.984-0.492-2.22-1.74-2.22
		c-1.236,0-1.775,1.152-1.775,2.256c0,1.272,0.72,2.232,1.74,2.232H328.803z"/>
	<path d="M332.99,93.82c0-0.744-0.012-1.344-0.048-1.896h0.948l0.06,0.996h0.024c0.42-0.72,1.115-1.128,2.052-1.128
		c1.416,0,2.472,1.188,2.472,2.952c0,2.088-1.283,3.12-2.64,3.12c-0.78,0-1.44-0.336-1.788-0.912h-0.023v3.156h-1.057V93.82z
		 M334.047,95.368c0,0.144,0.012,0.3,0.047,0.432c0.181,0.732,0.828,1.236,1.572,1.236c1.116,0,1.764-0.912,1.764-2.244
		c0-1.164-0.6-2.16-1.715-2.16c-0.721,0-1.404,0.504-1.608,1.296c-0.024,0.144-0.06,0.3-0.06,0.432V95.368z"/>
	<path d="M339.818,89.212h1.057v8.52h-1.057V89.212z"/>
	<path d="M346.719,96.34c0,0.504,0.023,0.996,0.084,1.392h-0.949L345.758,97h-0.035c-0.313,0.456-0.949,0.864-1.777,0.864
		c-1.176,0-1.775-0.828-1.775-1.668c0-1.404,1.248-2.172,3.492-2.16v-0.12c0-0.48-0.133-1.356-1.32-1.344
		c-0.552,0-1.115,0.156-1.523,0.432l-0.24-0.708c0.48-0.3,1.188-0.504,1.92-0.504c1.788,0,2.221,1.212,2.221,2.376V96.34z
		 M345.686,94.769c-1.151-0.024-2.459,0.18-2.459,1.308c0,0.696,0.455,1.008,0.983,1.008c0.769,0,1.261-0.48,1.429-0.972
		c0.035-0.108,0.047-0.228,0.047-0.336V94.769z"/>
	<path d="M348.266,96.665c0.324,0.192,0.877,0.408,1.404,0.408c0.756,0,1.116-0.372,1.116-0.864c0-0.504-0.3-0.78-1.067-1.068
		c-1.057-0.384-1.549-0.948-1.549-1.644c0-0.936,0.768-1.704,2.004-1.704c0.588,0,1.104,0.156,1.416,0.36l-0.252,0.756
		c-0.228-0.132-0.647-0.336-1.188-0.336c-0.624,0-0.96,0.36-0.96,0.792c0,0.492,0.336,0.708,1.092,0.996
		c0.996,0.372,1.524,0.876,1.524,1.752c0,1.032-0.805,1.752-2.16,1.752c-0.637,0-1.225-0.168-1.633-0.408L348.266,96.665z"/>
	<path d="M354.434,90.532v1.392h1.513v0.804h-1.513v3.132c0,0.72,0.205,1.128,0.793,1.128c0.287,0,0.455-0.024,0.611-0.072
		l0.049,0.804c-0.205,0.072-0.528,0.144-0.937,0.144c-0.492,0-0.888-0.168-1.14-0.444c-0.289-0.324-0.408-0.84-0.408-1.524v-3.168
		h-0.9v-0.804h0.9v-1.068L354.434,90.532z"/>
	<path d="M357.638,90.856c-0.396,0-0.659-0.312-0.659-0.684s0.275-0.672,0.684-0.672s0.672,0.3,0.672,0.672
		s-0.264,0.684-0.684,0.684H357.638z M357.134,97.732v-5.808h1.056v5.808H357.134z"/>
	<path d="M364.082,97.528c-0.275,0.132-0.888,0.336-1.668,0.336c-1.752,0-2.892-1.188-2.892-2.976c0-1.788,1.224-3.096,3.12-3.096
		c0.624,0,1.176,0.156,1.464,0.312l-0.24,0.804c-0.252-0.132-0.647-0.276-1.224-0.276c-1.332,0-2.052,0.996-2.052,2.208
		c0,1.344,0.863,2.172,2.016,2.172c0.6,0,0.996-0.144,1.296-0.276L364.082,97.528z"/>
	<path d="M364.682,99.185c0.84-1.188,1.5-2.736,1.5-4.896c0-2.16-0.648-3.684-1.5-4.884h0.815c0.757,0.984,1.572,2.532,1.572,4.884
		c-0.012,2.352-0.815,3.876-1.572,4.896H364.682z"/>
	<path d="M375.361,96.34c0,0.504,0.024,0.996,0.084,1.392h-0.947L374.401,97h-0.036c-0.312,0.456-0.947,0.864-1.775,0.864
		c-1.177,0-1.776-0.828-1.776-1.668c0-1.404,1.248-2.172,3.492-2.16v-0.12c0-0.48-0.132-1.356-1.32-1.344
		c-0.552,0-1.116,0.156-1.523,0.432l-0.24-0.708c0.479-0.3,1.188-0.504,1.92-0.504c1.788,0,2.22,1.212,2.22,2.376V96.34z
		 M374.329,94.769c-1.151-0.024-2.46,0.18-2.46,1.308c0,0.696,0.456,1.008,0.984,1.008c0.768,0,1.26-0.48,1.428-0.972
		c0.036-0.108,0.048-0.228,0.048-0.336V94.769z"/>
	<path d="M379.418,97.864c-1.561,0-2.784-1.152-2.784-2.988c0-1.944,1.284-3.084,2.88-3.084c1.668,0,2.796,1.212,2.796,2.976
		c0,2.16-1.5,3.096-2.88,3.096H379.418z M379.454,97.072c1.008,0,1.764-0.948,1.764-2.268c0-0.984-0.492-2.22-1.74-2.22
		c-1.235,0-1.775,1.152-1.775,2.256c0,1.272,0.72,2.232,1.739,2.232H379.454z"/>
	<path d="M383.653,93.736c0-0.684-0.012-1.272-0.048-1.812h0.924l0.049,1.14h0.035c0.265-0.78,0.912-1.272,1.62-1.272
		c0.108,0,0.192,0.012,0.288,0.036v0.984c-0.12-0.012-0.228-0.024-0.372-0.024c-0.744,0-1.271,0.564-1.416,1.344
		c-0.023,0.156-0.036,0.324-0.036,0.504v3.096h-1.056L383.653,93.736z"/>
	<path d="M389.126,90.532v1.392h1.512v0.804h-1.512v3.132c0,0.72,0.203,1.128,0.792,1.128c0.287,0,0.456-0.024,0.611-0.072
		l0.048,0.804c-0.203,0.072-0.527,0.144-0.936,0.144c-0.492,0-0.888-0.168-1.14-0.444c-0.288-0.324-0.408-0.84-0.408-1.524v-3.168
		h-0.9v-0.804h0.9v-1.068L389.126,90.532z"/>
	<path d="M395.917,96.34c0,0.504,0.024,0.996,0.084,1.392h-0.947L394.957,97h-0.036c-0.312,0.456-0.947,0.864-1.775,0.864
		c-1.177,0-1.776-0.828-1.776-1.668c0-1.404,1.248-2.172,3.492-2.16v-0.12c0-0.48-0.132-1.356-1.32-1.344
		c-0.552,0-1.116,0.156-1.523,0.432l-0.24-0.708c0.479-0.3,1.188-0.504,1.92-0.504c1.788,0,2.22,1.212,2.22,2.376V96.34z
		 M394.885,94.769c-1.151-0.024-2.46,0.18-2.46,1.308c0,0.696,0.456,1.008,0.984,1.008c0.768,0,1.26-0.48,1.428-0.972
		c0.036-0.108,0.048-0.228,0.048-0.336V94.769z"/>
</g>
<line fill="none" stroke="#FF0000" stroke-width="2" x1="379" y1="104.399" x2="416.334" y2="149.732"/>
<g>
	<path d="M261.821,125.189l-0.84,2.544h-1.08l2.748-8.088h1.26l2.76,8.088h-1.116l-0.864-2.544H261.821z M264.473,124.373
		l-0.804-2.328c-0.168-0.528-0.288-1.008-0.408-1.476h-0.036c-0.108,0.468-0.24,0.972-0.396,1.464l-0.792,2.34H264.473z"/>
	<path d="M268.973,120.533v1.392h1.512v0.804h-1.512v3.132c0,0.72,0.204,1.128,0.792,1.128c0.288,0,0.456-0.024,0.612-0.072
		l0.048,0.804c-0.204,0.072-0.528,0.144-0.936,0.144c-0.492,0-0.888-0.168-1.14-0.444c-0.288-0.324-0.408-0.84-0.408-1.524v-3.168
		h-0.9v-0.804h0.9v-1.068L268.973,120.533z"/>
	<path d="M271.685,123.737c0-0.684-0.012-1.272-0.048-1.812h0.924l0.048,1.14h0.036c0.264-0.78,0.912-1.272,1.62-1.272
		c0.108,0,0.192,0.012,0.288,0.036v0.984c-0.12-0.012-0.228-0.024-0.372-0.024c-0.744,0-1.272,0.564-1.416,1.344
		c-0.024,0.156-0.036,0.324-0.036,0.504v3.096h-1.056L271.685,123.737z"/>
	<path d="M276.148,120.857c-0.396,0-0.66-0.312-0.66-0.684s0.276-0.672,0.684-0.672c0.408,0,0.672,0.3,0.672,0.672
		s-0.264,0.684-0.684,0.684H276.148z M275.645,127.733v-5.808h1.056v5.808H275.645z"/>
	<path d="M282.544,126.341c0,0.504,0.024,0.996,0.084,1.392h-0.948l-0.096-0.732h-0.036c-0.312,0.456-0.948,0.864-1.776,0.864
		c-1.176,0-1.776-0.828-1.776-1.668c0-1.404,1.248-2.172,3.492-2.16v-0.12c0-0.48-0.132-1.356-1.32-1.344
		c-0.552,0-1.116,0.156-1.524,0.432l-0.24-0.708c0.48-0.3,1.188-0.504,1.92-0.504c1.788,0,2.22,1.212,2.22,2.376V126.341z
		 M281.512,124.769c-1.152-0.024-2.46,0.18-2.46,1.308c0,0.696,0.456,1.008,0.984,1.008c0.768,0,1.26-0.48,1.428-0.972
		c0.036-0.108,0.048-0.228,0.048-0.336V124.769z"/>
	<path d="M284.236,119.213h1.056v8.52h-1.056V119.213z"/>
	<path d="M289.444,126.665c0.324,0.192,0.876,0.408,1.404,0.408c0.756,0,1.116-0.372,1.116-0.864c0-0.504-0.3-0.78-1.068-1.068
		c-1.056-0.384-1.548-0.948-1.548-1.644c0-0.936,0.768-1.704,2.004-1.704c0.588,0,1.104,0.156,1.416,0.36l-0.252,0.756
		c-0.228-0.132-0.648-0.336-1.188-0.336c-0.624,0-0.96,0.36-0.96,0.792c0,0.492,0.336,0.708,1.092,0.996
		c0.996,0.372,1.524,0.876,1.524,1.752c0,1.032-0.804,1.752-2.16,1.752c-0.636,0-1.224-0.168-1.632-0.408L289.444,126.665z"/>
	<path d="M294.94,125.009c0.024,1.428,0.924,2.016,1.98,2.016c0.756,0,1.224-0.132,1.608-0.288l0.192,0.744
		c-0.372,0.168-1.02,0.372-1.944,0.372c-1.776,0-2.856-1.188-2.856-2.928c0-1.764,1.044-3.144,2.736-3.144
		c1.896,0,2.388,1.668,2.388,2.736c0,0.216-0.013,0.384-0.036,0.504L294.94,125.009z M298.024,124.253
		c0.012-0.66-0.276-1.716-1.452-1.716c-1.08,0-1.536,0.984-1.62,1.716H298.024z"/>
	<path d="M300.352,123.821c0-0.744-0.012-1.344-0.047-1.896h0.947l0.061,0.996h0.023c0.42-0.72,1.116-1.128,2.053-1.128
		c1.416,0,2.472,1.188,2.472,2.952c0,2.088-1.284,3.12-2.64,3.12c-0.781,0-1.44-0.336-1.789-0.912h-0.023v3.156h-1.057V123.821z
		 M301.408,125.369c0,0.144,0.012,0.3,0.048,0.432c0.181,0.732,0.828,1.236,1.572,1.236c1.116,0,1.764-0.912,1.764-2.244
		c0-1.164-0.601-2.16-1.716-2.16c-0.721,0-1.404,0.504-1.607,1.296c-0.025,0.144-0.061,0.3-0.061,0.432V125.369z"/>
	<path d="M308.451,120.533v1.392h1.513v0.804h-1.513v3.132c0,0.72,0.205,1.128,0.793,1.128c0.287,0,0.455-0.024,0.611-0.072
		l0.049,0.804c-0.205,0.072-0.528,0.144-0.937,0.144c-0.492,0-0.888-0.168-1.14-0.444c-0.289-0.324-0.408-0.84-0.408-1.524v-3.168
		h-0.9v-0.804h0.9v-1.068L308.451,120.533z"/>
	<path d="M315.244,126.341c0,0.504,0.023,0.996,0.084,1.392h-0.948l-0.097-0.732h-0.035c-0.313,0.456-0.948,0.864-1.776,0.864
		c-1.176,0-1.776-0.828-1.776-1.668c0-1.404,1.248-2.172,3.492-2.16v-0.12c0-0.48-0.132-1.356-1.32-1.344
		c-0.551,0-1.115,0.156-1.523,0.432l-0.24-0.708c0.48-0.3,1.188-0.504,1.92-0.504c1.789,0,2.221,1.212,2.221,2.376V126.341z
		 M314.212,124.769c-1.151-0.024-2.46,0.18-2.46,1.308c0,0.696,0.456,1.008,0.984,1.008c0.768,0,1.26-0.48,1.428-0.972
		c0.035-0.108,0.048-0.228,0.048-0.336V124.769z"/>
	<path d="M316.936,119.213h1.057v8.52h-1.057V119.213z"/>
	<path d="M327.304,119.213v7.02c0,0.516,0.012,1.104,0.048,1.5h-0.947l-0.049-1.008h-0.023c-0.324,0.648-1.021,1.14-1.969,1.14
		c-1.404,0-2.496-1.188-2.496-2.952c-0.012-1.944,1.2-3.12,2.604-3.12c0.899,0,1.5,0.42,1.752,0.876h0.024v-3.456H327.304z
		 M326.248,124.289c0-0.144-0.012-0.312-0.049-0.456c-0.156-0.66-0.731-1.212-1.523-1.212c-1.092,0-1.74,0.96-1.74,2.232
		c0,1.188,0.588,2.16,1.717,2.16c0.707,0,1.355-0.48,1.547-1.26c0.037-0.144,0.049-0.288,0.049-0.456V124.289z"/>
	<path d="M329.656,125.009c0.023,1.428,0.924,2.016,1.979,2.016c0.756,0,1.224-0.132,1.608-0.288l0.191,0.744
		c-0.372,0.168-1.02,0.372-1.943,0.372c-1.776,0-2.856-1.188-2.856-2.928c0-1.764,1.044-3.144,2.735-3.144
		c1.896,0,2.389,1.668,2.389,2.736c0,0.216-0.012,0.384-0.036,0.504L329.656,125.009z M332.74,124.253
		c0.012-0.66-0.276-1.716-1.453-1.716c-1.08,0-1.535,0.984-1.619,1.716H332.74z"/>
	<path d="M335.164,127.733v-5.004h-0.805v-0.804h0.805v-0.276c0-0.816,0.191-1.56,0.684-2.028c0.396-0.384,0.924-0.54,1.403-0.54
		c0.385,0,0.696,0.084,0.9,0.168l-0.132,0.816c-0.168-0.072-0.372-0.132-0.685-0.132c-0.888,0-1.128,0.792-1.128,1.68v0.312h1.404
		v0.804h-1.392v5.004H335.164z"/>
	<path d="M339.027,125.009c0.024,1.428,0.925,2.016,1.98,2.016c0.756,0,1.224-0.132,1.608-0.288l0.191,0.744
		c-0.372,0.168-1.02,0.372-1.943,0.372c-1.776,0-2.856-1.188-2.856-2.928c0-1.764,1.044-3.144,2.736-3.144
		c1.896,0,2.388,1.668,2.388,2.736c0,0.216-0.012,0.384-0.036,0.504L339.027,125.009z M342.111,124.253
		c0.013-0.66-0.275-1.716-1.451-1.716c-1.08,0-1.536,0.984-1.62,1.716H342.111z"/>
	<path d="M348.579,127.529c-0.275,0.132-0.888,0.336-1.668,0.336c-1.752,0-2.892-1.188-2.892-2.976c0-1.788,1.224-3.096,3.12-3.096
		c0.624,0,1.176,0.156,1.464,0.312l-0.24,0.804c-0.252-0.132-0.647-0.276-1.224-0.276c-1.332,0-2.052,0.996-2.052,2.208
		c0,1.344,0.863,2.172,2.016,2.172c0.6,0,0.996-0.144,1.296-0.276L348.579,127.529z"/>
	<path d="M351.243,120.533v1.392h1.512v0.804h-1.512v3.132c0,0.72,0.203,1.128,0.792,1.128c0.287,0,0.456-0.024,0.611-0.072
		l0.048,0.804c-0.203,0.072-0.527,0.144-0.936,0.144c-0.492,0-0.888-0.168-1.14-0.444c-0.288-0.324-0.408-0.84-0.408-1.524v-3.168
		h-0.9v-0.804h0.9v-1.068L351.243,120.533z"/>
	<path d="M239.531,133.805c-0.876,1.188-1.5,2.736-1.5,4.92c0,2.136,0.66,3.66,1.5,4.86h-0.816
		c-0.756-0.996-1.572-2.532-1.572-4.872c0.012-2.352,0.816-3.9,1.572-4.908H239.531z"/>
	<path d="M243.023,142.265c-1.56,0-2.784-1.152-2.784-2.988c0-1.944,1.284-3.084,2.88-3.084c1.668,0,2.796,1.212,2.796,2.976
		c0,2.16-1.5,3.096-2.88,3.096H243.023z M243.059,141.473c1.008,0,1.764-0.948,1.764-2.268c0-0.984-0.492-2.22-1.74-2.22
		c-1.236,0-1.776,1.152-1.776,2.256c0,1.272,0.72,2.232,1.74,2.232H243.059z"/>
	<path d="M247.247,138.221c0-0.744-0.012-1.344-0.048-1.896h0.948l0.06,0.996h0.024c0.42-0.72,1.116-1.128,2.052-1.128
		c1.416,0,2.472,1.188,2.472,2.952c0,2.088-1.284,3.12-2.64,3.12c-0.78,0-1.44-0.336-1.788-0.912h-0.024v3.156h-1.056V138.221z
		 M248.303,139.769c0,0.144,0.012,0.3,0.048,0.432c0.18,0.732,0.828,1.236,1.572,1.236c1.116,0,1.764-0.912,1.764-2.244
		c0-1.164-0.6-2.16-1.716-2.16c-0.72,0-1.404,0.504-1.608,1.296c-0.024,0.144-0.06,0.3-0.06,0.432V139.769z"/>
	<path d="M254.687,139.409c0.024,1.428,0.924,2.016,1.98,2.016c0.756,0,1.224-0.132,1.608-0.288l0.192,0.744
		c-0.372,0.168-1.02,0.372-1.944,0.372c-1.776,0-2.856-1.188-2.856-2.928c0-1.764,1.044-3.144,2.736-3.144
		c1.896,0,2.388,1.668,2.388,2.736c0,0.216-0.012,0.384-0.036,0.504L254.687,139.409z M257.771,138.653
		c0.012-0.66-0.276-1.716-1.452-1.716c-1.08,0-1.536,0.984-1.62,1.716H257.771z"/>
	<path d="M260.099,137.897c0-0.612-0.012-1.092-0.048-1.572h0.936l0.06,0.948h0.024c0.288-0.54,0.96-1.08,1.92-1.08
		c0.804,0,2.052,0.48,2.052,2.472v3.468h-1.056v-3.348c0-0.936-0.348-1.728-1.344-1.728c-0.684,0-1.224,0.492-1.416,1.08
		c-0.048,0.132-0.072,0.324-0.072,0.492v3.504h-1.056V137.897z"/>
	<path d="M267.262,135.257c-0.396,0-0.66-0.312-0.66-0.684s0.276-0.672,0.684-0.672c0.408,0,0.672,0.3,0.672,0.672
		s-0.264,0.684-0.684,0.684H267.262z M266.758,142.133v-5.808h1.056v5.808H266.758z"/>
	<path d="M269.566,137.897c0-0.612-0.012-1.092-0.048-1.572h0.936l0.06,0.948h0.024c0.288-0.54,0.96-1.08,1.92-1.08
		c0.804,0,2.052,0.48,2.052,2.472v3.468h-1.056v-3.348c0-0.936-0.348-1.728-1.344-1.728c-0.684,0-1.224,0.492-1.416,1.08
		c-0.048,0.132-0.072,0.324-0.072,0.492v3.504h-1.056V137.897z"/>
	<path d="M281.194,141.281c0,1.344-0.276,2.148-0.828,2.664c-0.576,0.516-1.392,0.696-2.124,0.696c-0.696,0-1.464-0.168-1.932-0.48
		l0.264-0.816c0.384,0.252,0.984,0.468,1.704,0.468c1.08,0,1.872-0.564,1.872-2.04v-0.636h-0.024
		c-0.312,0.54-0.948,0.972-1.848,0.972c-1.44,0-2.472-1.224-2.472-2.844c0-1.968,1.284-3.072,2.628-3.072
		c1.008,0,1.548,0.516,1.812,0.996h0.024l0.036-0.864h0.936c-0.036,0.408-0.048,0.876-0.048,1.584V141.281z M280.138,138.605
		c0-0.168-0.012-0.324-0.06-0.468c-0.192-0.624-0.696-1.128-1.476-1.128c-1.008,0-1.728,0.852-1.728,2.208
		c0,1.128,0.588,2.088,1.716,2.088c0.66,0,1.248-0.408,1.464-1.092c0.06-0.168,0.084-0.372,0.084-0.564V138.605z"/>
	<path d="M285.478,133.613h1.056v3.636h0.024c0.372-0.648,1.044-1.056,1.98-1.056c1.44,0,2.448,1.2,2.448,2.952
		c0,2.088-1.32,3.12-2.616,3.12c-0.84,0-1.5-0.324-1.944-1.092h-0.024l-0.06,0.96h-0.912c0.036-0.396,0.048-0.984,0.048-1.5V133.613
		z M286.534,139.805c0,0.132,0.012,0.264,0.036,0.384c0.204,0.732,0.828,1.236,1.584,1.236c1.116,0,1.764-0.9,1.764-2.232
		c0-1.176-0.6-2.172-1.728-2.172c-0.72,0-1.392,0.504-1.596,1.296c-0.036,0.132-0.06,0.276-0.06,0.444V139.805z"/>
	<path d="M292.918,139.409c0.024,1.428,0.924,2.016,1.98,2.016c0.756,0,1.224-0.132,1.608-0.288l0.192,0.744
		c-0.372,0.168-1.02,0.372-1.944,0.372c-1.776,0-2.856-1.188-2.856-2.928c0-1.764,1.044-3.144,2.736-3.144
		c1.896,0,2.388,1.668,2.388,2.736c0,0.216-0.012,0.384-0.036,0.504L292.918,139.409z M296.002,138.653
		c0.012-0.66-0.276-1.716-1.452-1.716c-1.08,0-1.536,0.984-1.62,1.716H296.002z"/>
	<path d="M299.602,134.933v1.392h1.512v0.804h-1.512v3.132c0,0.72,0.204,1.128,0.792,1.128c0.288,0,0.456-0.024,0.612-0.072
		l0.048,0.804c-0.204,0.072-0.528,0.144-0.937,0.144c-0.492,0-0.888-0.168-1.14-0.444c-0.288-0.324-0.408-0.84-0.408-1.524v-3.168
		h-0.9v-0.804h0.9v-1.068L299.602,134.933z"/>
	<path d="M302.77,136.325l0.78,2.94c0.155,0.648,0.312,1.26,0.42,1.86h0.036c0.132-0.588,0.324-1.212,0.516-1.848l0.948-2.952h0.888
		l0.9,2.904c0.216,0.684,0.384,1.308,0.516,1.896h0.036c0.097-0.588,0.252-1.2,0.444-1.884l0.828-2.916h1.043l-1.871,5.808h-0.961
		l-0.887-2.772c-0.205-0.66-0.373-1.236-0.517-1.92h-0.024c-0.144,0.696-0.324,1.308-0.527,1.932l-0.936,2.76h-0.961l-1.752-5.808
		H302.77z"/>
	<path d="M311.674,139.409c0.023,1.428,0.924,2.016,1.98,2.016c0.756,0,1.224-0.132,1.607-0.288l0.191,0.744
		c-0.371,0.168-1.02,0.372-1.943,0.372c-1.775,0-2.855-1.188-2.855-2.928c0-1.764,1.043-3.144,2.735-3.144
		c1.896,0,2.388,1.668,2.388,2.736c0,0.216-0.012,0.384-0.035,0.504L311.674,139.409z M314.758,138.653
		c0.012-0.66-0.275-1.716-1.452-1.716c-1.08,0-1.536,0.984-1.62,1.716H314.758z"/>
	<path d="M317.686,139.409c0.023,1.428,0.924,2.016,1.98,2.016c0.756,0,1.224-0.132,1.607-0.288l0.191,0.744
		c-0.371,0.168-1.02,0.372-1.943,0.372c-1.775,0-2.855-1.188-2.855-2.928c0-1.764,1.043-3.144,2.735-3.144
		c1.896,0,2.388,1.668,2.388,2.736c0,0.216-0.012,0.384-0.035,0.504L317.686,139.409z M320.77,138.653
		c0.012-0.66-0.275-1.716-1.452-1.716c-1.08,0-1.536,0.984-1.62,1.716H320.77z"/>
	<path d="M323.098,137.897c0-0.612-0.012-1.092-0.048-1.572h0.937l0.06,0.948h0.024c0.287-0.54,0.959-1.08,1.92-1.08
		c0.804,0,2.051,0.48,2.051,2.472v3.468h-1.055v-3.348c0-0.936-0.349-1.728-1.345-1.728c-0.685,0-1.224,0.492-1.416,1.08
		c-0.048,0.132-0.071,0.324-0.071,0.492v3.504h-1.057V137.897z"/>
	<path d="M333.573,134.933v1.392h1.513v0.804h-1.513v3.132c0,0.72,0.204,1.128,0.792,1.128c0.288,0,0.456-0.024,0.612-0.072
		l0.048,0.804c-0.204,0.072-0.528,0.144-0.936,0.144c-0.492,0-0.889-0.168-1.141-0.444c-0.288-0.324-0.408-0.84-0.408-1.524v-3.168
		h-0.9v-0.804h0.9v-1.068L333.573,134.933z"/>
	<path d="M336.273,133.613h1.056v3.624h0.023c0.168-0.3,0.433-0.576,0.757-0.744c0.312-0.192,0.684-0.3,1.08-0.3
		c0.779,0,2.027,0.48,2.027,2.484v3.456h-1.056v-3.336c0-0.948-0.348-1.728-1.344-1.728c-0.685,0-1.213,0.48-1.416,1.056
		c-0.061,0.144-0.072,0.3-0.072,0.504v3.504h-1.056V133.613z"/>
	<path d="M343.532,139.409c0.024,1.428,0.925,2.016,1.98,2.016c0.756,0,1.224-0.132,1.608-0.288l0.191,0.744
		c-0.372,0.168-1.02,0.372-1.944,0.372c-1.775,0-2.855-1.188-2.855-2.928c0-1.764,1.044-3.144,2.736-3.144
		c1.896,0,2.388,1.668,2.388,2.736c0,0.216-0.012,0.384-0.036,0.504L343.532,139.409z M346.616,138.653
		c0.013-0.66-0.275-1.716-1.451-1.716c-1.08,0-1.536,0.984-1.62,1.716H346.616z"/>
	<path d="M355.581,140.741c0,0.504,0.024,0.996,0.084,1.392h-0.947l-0.097-0.732h-0.036c-0.312,0.456-0.947,0.864-1.775,0.864
		c-1.177,0-1.776-0.828-1.776-1.668c0-1.404,1.248-2.172,3.492-2.16v-0.12c0-0.48-0.132-1.356-1.32-1.344
		c-0.552,0-1.116,0.156-1.523,0.432l-0.24-0.708c0.479-0.3,1.188-0.504,1.92-0.504c1.788,0,2.22,1.212,2.22,2.376V140.741z
		 M354.549,139.169c-1.151-0.024-2.46,0.18-2.46,1.308c0,0.696,0.456,1.008,0.984,1.008c0.768,0,1.26-0.48,1.428-0.972
		c0.036-0.108,0.048-0.228,0.048-0.336V139.169z"/>
	<path d="M358.497,134.933v1.392h1.512v0.804h-1.512v3.132c0,0.72,0.203,1.128,0.792,1.128c0.287,0,0.456-0.024,0.611-0.072
		l0.048,0.804c-0.203,0.072-0.527,0.144-0.936,0.144c-0.492,0-0.888-0.168-1.14-0.444c-0.288-0.324-0.408-0.84-0.408-1.524v-3.168
		h-0.9v-0.804h0.9v-1.068L358.497,134.933z"/>
	<path d="M361.208,138.137c0-0.684-0.012-1.272-0.048-1.812h0.924l0.048,1.14h0.036c0.265-0.78,0.912-1.272,1.62-1.272
		c0.108,0,0.192,0.012,0.288,0.036v0.984c-0.12-0.012-0.228-0.024-0.372-0.024c-0.744,0-1.271,0.564-1.416,1.344
		c-0.023,0.156-0.036,0.324-0.036,0.504v3.096h-1.056L361.208,138.137z"/>
	<path d="M365.673,135.257c-0.396,0-0.66-0.312-0.66-0.684s0.276-0.672,0.685-0.672c0.407,0,0.672,0.3,0.672,0.672
		s-0.265,0.684-0.685,0.684H365.673z M365.169,142.133v-5.808h1.056v5.808H365.169z"/>
	<path d="M372.068,140.741c0,0.504,0.024,0.996,0.084,1.392h-0.947l-0.097-0.732h-0.036c-0.312,0.456-0.947,0.864-1.775,0.864
		c-1.177,0-1.776-0.828-1.776-1.668c0-1.404,1.248-2.172,3.492-2.16v-0.12c0-0.48-0.132-1.356-1.32-1.344
		c-0.552,0-1.116,0.156-1.523,0.432l-0.24-0.708c0.479-0.3,1.188-0.504,1.92-0.504c1.788,0,2.22,1.212,2.22,2.376V140.741z
		 M371.036,139.169c-1.151-0.024-2.46,0.18-2.46,1.308c0,0.696,0.456,1.008,0.984,1.008c0.768,0,1.26-0.48,1.428-0.972
		c0.036-0.108,0.048-0.228,0.048-0.336V139.169z"/>
	<path d="M373.125,143.585c0.84-1.188,1.5-2.736,1.5-4.896c0-2.16-0.648-3.684-1.5-4.884h0.815c0.756,0.984,1.572,2.532,1.572,4.884
		c-0.012,2.352-0.816,3.876-1.572,4.896H373.125z"/>
</g>
<path fill="none" stroke="#FF0000" stroke-width="2" d="M422.446,249.622c4.114,4.604,6.584,10.497,6.584,16.92
	c0,14.729-12.983,26.668-29,26.668s-29-11.939-29-26.668c0-14.727,12.983-26.666,29-26.666
	C409.062,239.875,417.128,243.671,422.446,249.622z"/>
<line fill="none" stroke="#FF0000" stroke-width="2" x1="302.334" y1="147.732" x2="377.833" y2="249.387"/>
</svg>
