<?xml version="1.0" encoding="utf-8"?>
<!-- Generator: Adobe Illustrator 27.2.0, SVG Export Plug-In . SVG Version: 6.00 Build 0)  -->
<svg version="1.1" id="Layer_1" xmlns="http://www.w3.org/2000/svg" xmlns:xlink="http://www.w3.org/1999/xlink" x="0px" y="0px"
	 viewBox="0 0 2897 2054" style="enable-background:new 0 0 2897 2054;" xml:space="preserve">
<style type="text/css">
	.st0{fill:#E2F0D9;stroke:#395B24;stroke-width:5;}
	.st1{font-family:'ArialMT';}
	.st2{font-size:70px;}
	.st3{fill:#FFC000;stroke:#504830;stroke-width:5;}
	.st4{fill:#00B0F0;stroke:#005E80;stroke-width:5;}
	.st5{fill:#70AD47;stroke:#3B5A25;stroke-width:5;}
	.st6{font-family:'Arial-BoldMT';}
	.st7{font-size:40px;}
	.st8{fill:#FF6699;stroke:#602035;stroke-width:5;}
	.st9{fill:none;stroke:#000000;stroke-width:20;stroke-linejoin:round;}
	.st10{fill:none;stroke:#000000;stroke-width:16.67;stroke-linejoin:round;}
	.st11{font-size:160px;}
	.st12{font-family:'MyriadPro-Regular';}
	.st13{font-size:72px;}
	.st14{fill:none;}
</style>
<g>
	<path class="st0" d="M500,975h290v140H500V975z"/>
	<path class="st0" d="M900,300h435v140H900V300z"/>
	<path class="st0" d="M1400,400h310v140h-310V400z"/>
	<path class="st0" d="M1900,900h300v140h-300V900z"/>
	<path class="st0" d="M1950,1090h445v140h-445V1090z"/>
</g>
<g>
	<text transform="matrix(1 0 0 1 637.8418 1040)" class="st1 st2"> </text>
	<text transform="matrix(1 0 0 1 995.0488 365)" class="st1 st2"> </text>
	<text transform="matrix(1 0 0 1 1123.4082 365)" class="st1 st2"> </text>
	<text transform="matrix(1 0 0 1 1560.0879 465)" class="st1 st2"> </text>
	<text transform="matrix(1 0 0 1 1995.0488 965)" class="st1 st2"> </text>
	<text transform="matrix(1 0 0 1 2045.0488 1155)" class="st1 st2"> </text>
</g>
<path class="st3" d="M364,708h141v142H364V708z"/>
<path class="st4" d="M2350,1350h480v250h-480V1350z"/>
<path class="st5" d="M2150,475h480v250h-480V475z"/>
<text transform="matrix(1 0 0 1 2213.4863 570)" class="st6 st7"> </text>
<path class="st8" d="M1750,25h480v250h-480V25z"/>
<text transform="matrix(1 0 0 1 1849.6362 120)" class="st6 st7"> </text>
<path d="M425.9,890.5l7.6-11.2l75.9,51.8l11.5-16.8l29.4,52.9l-60-8.2l11.5-16.8L425.9,890.5L425.9,890.5z"/>
<path d="M1704.4,285l8.1,10.9l-73.7,54.8l12.1,16.3l-59.6,10.6l27.3-54l12.1,16.3L1704.4,285z"/>
<path d="M2179.5,763.2l10.1,9l-60.8,68.9l15.2,13.4l-56.1,22.7l15.5-58.5l15.2,13.4L2179.5,763.2L2179.5,763.2z"/>
<path d="M2415,1300l-5,12.6l-85.5-33.7l-7.4,18.9l-40.5-45l60.3-5.3l-7.4,18.9L2415,1300z"/>
<path class="st9" d="M537.4,1754.5h76.5c52-73.3,101.8-67.8,150,0h105.8l38.2,182.3l45.6-583.7l69,644l48.6-242.6h557.2
	c69.7-141.7,187.6-137.7,285.2,0h244.1"/>
<path class="st10" d="M515.5,1266.3h319V423.2c116,127.9,408.7,96,819.8,137.6c44.2,4.5,147.8,33.4,153.2,71.3
	c30.6,214.5,67.3,479.4,80.9,586.2c3.2,25.1,22.7,44.5,61.2,45.2c53.8,0.9,231.5,0,231.5,0"/>
<g>
	<text transform="matrix(1 0 0 1 620 1420)" class="st6 st11">4</text>
	<text transform="matrix(1 0 0 1 1985 1420)" class="st6 st11">4</text>
	<text transform="matrix(1 0 0 1 875 930)" class="st6 st11">0</text>
	<text transform="matrix(1 0 0 1 915 640)" class="st6 st11">1</text>
	<text transform="matrix(1 0 0 1 1295 685)" class="st6 st11">2</text>
	<text transform="matrix(1 0 0 1 1720 975)" class="st6 st11">3</text>
</g>
<text transform="matrix(1 0 0 1 416.4873 792.9999)" class="st12 st13">A</text>
<rect x="1871.9" y="184" class="st14" width="77.1" height="3"/>
<text transform="matrix(1 0 0 1 623.0395 1059.1157)" class="st12 st13">B</text>
<text transform="matrix(1 0 0 1 1052.9844 382.9849)" class="st12 st13">C</text>
<text transform="matrix(1 0 0 1 1464.9834 486.9844)" class="st12 st13">D</text>
<text transform="matrix(1 0 0 1 1851.2454 150)" class="st12 st13">E</text>
<text transform="matrix(1 0 0 1 2200.4531 626.9842)" class="st12 st13">F</text>
<text transform="matrix(1 0 0 1 1943.5742 986.967)" class="st12 st13">G</text>
<text transform="matrix(1 0 0 1 1985.9814 1185)" class="st12 st13">H</text>
<text transform="matrix(1 0 0 1 2395 1488.9823)" class="st12 st13">I</text>
</svg>
